%TF.GenerationSoftware,KiCad,Pcbnew,9.0.4*%
%TF.CreationDate,2025-09-30T19:49:13-05:00*%
%TF.ProjectId,keyboard,6b657962-6f61-4726-942e-6b696361645f,v1.0.0*%
%TF.SameCoordinates,Original*%
%TF.FileFunction,Paste,Bot*%
%TF.FilePolarity,Positive*%
%FSLAX46Y46*%
G04 Gerber Fmt 4.6, Leading zero omitted, Abs format (unit mm)*
G04 Created by KiCad (PCBNEW 9.0.4) date 2025-09-30 19:49:13*
%MOMM*%
%LPD*%
G01*
G04 APERTURE LIST*
%ADD10R,0.900000X1.200000*%
G04 APERTURE END LIST*
D10*
%TO.C,D29*%
X243600000Y-78800000D03*
X246900000Y-78800000D03*
%TD*%
%TO.C,D26*%
X243600000Y-135950000D03*
X246900000Y-135950000D03*
%TD*%
%TO.C,D16*%
X205500000Y-155000000D03*
X208800000Y-155000000D03*
%TD*%
%TO.C,D11*%
X186450000Y-155000000D03*
X189750000Y-155000000D03*
%TD*%
%TO.C,D2*%
X148350000Y-135950000D03*
X151650000Y-135950000D03*
%TD*%
%TO.C,D7*%
X167400000Y-135950000D03*
X170700000Y-135950000D03*
%TD*%
%TO.C,D18*%
X205500000Y-116900000D03*
X208800000Y-116900000D03*
%TD*%
%TO.C,D21*%
X224550000Y-135950000D03*
X227850000Y-135950000D03*
%TD*%
%TO.C,D5*%
X148350000Y-78800000D03*
X151650000Y-78800000D03*
%TD*%
%TO.C,D10*%
X167400000Y-78800000D03*
X170700000Y-78800000D03*
%TD*%
%TO.C,D27*%
X243600000Y-116900000D03*
X246900000Y-116900000D03*
%TD*%
%TO.C,D13*%
X186450000Y-116900000D03*
X189750000Y-116900000D03*
%TD*%
%TO.C,D17*%
X205500000Y-135950000D03*
X208800000Y-135950000D03*
%TD*%
%TO.C,D20*%
X205500000Y-78800000D03*
X208800000Y-78800000D03*
%TD*%
%TO.C,D6*%
X167400000Y-155000000D03*
X170700000Y-155000000D03*
%TD*%
%TO.C,D4*%
X148350000Y-97850000D03*
X151650000Y-97850000D03*
%TD*%
%TO.C,D14*%
X186450000Y-97850000D03*
X189750000Y-97850000D03*
%TD*%
%TO.C,D28*%
X243600000Y-97850000D03*
X246900000Y-97850000D03*
%TD*%
%TO.C,D19*%
X205500000Y-97850000D03*
X208800000Y-97850000D03*
%TD*%
%TO.C,D12*%
X186450000Y-135950000D03*
X189750000Y-135950000D03*
%TD*%
%TO.C,D9*%
X167400000Y-97850000D03*
X170700000Y-97850000D03*
%TD*%
%TO.C,D3*%
X148350000Y-116900000D03*
X151650000Y-116900000D03*
%TD*%
%TO.C,D22*%
X224550000Y-116900000D03*
X227850000Y-116900000D03*
%TD*%
%TO.C,D8*%
X167400000Y-116900000D03*
X170700000Y-116900000D03*
%TD*%
%TO.C,D23*%
X224550000Y-97850000D03*
X227850000Y-97850000D03*
%TD*%
%TO.C,D15*%
X186450000Y-78800000D03*
X189750000Y-78800000D03*
%TD*%
%TO.C,D1*%
X148350000Y-155000000D03*
X151650000Y-155000000D03*
%TD*%
%TO.C,D24*%
X224550000Y-78800000D03*
X227850000Y-78800000D03*
%TD*%
%TO.C,D25*%
X234075000Y-155000000D03*
X237375000Y-155000000D03*
%TD*%
M02*
