%TF.GenerationSoftware,KiCad,Pcbnew,9.0.4*%
%TF.CreationDate,2025-09-30T19:49:13-05:00*%
%TF.ProjectId,keyboard,6b657962-6f61-4726-942e-6b696361645f,v1.0.0*%
%TF.SameCoordinates,Original*%
%TF.FileFunction,Legend,Top*%
%TF.FilePolarity,Positive*%
%FSLAX46Y46*%
G04 Gerber Fmt 4.6, Leading zero omitted, Abs format (unit mm)*
G04 Created by KiCad (PCBNEW 9.0.4) date 2025-09-30 19:49:13*
%MOMM*%
%LPD*%
G01*
G04 APERTURE LIST*
G04 Aperture macros list*
%AMRoundRect*
0 Rectangle with rounded corners*
0 $1 Rounding radius*
0 $2 $3 $4 $5 $6 $7 $8 $9 X,Y pos of 4 corners*
0 Add a 4 corners polygon primitive as box body*
4,1,4,$2,$3,$4,$5,$6,$7,$8,$9,$2,$3,0*
0 Add four circle primitives for the rounded corners*
1,1,$1+$1,$2,$3*
1,1,$1+$1,$4,$5*
1,1,$1+$1,$6,$7*
1,1,$1+$1,$8,$9*
0 Add four rect primitives between the rounded corners*
20,1,$1+$1,$2,$3,$4,$5,0*
20,1,$1+$1,$4,$5,$6,$7,0*
20,1,$1+$1,$6,$7,$8,$9,0*
20,1,$1+$1,$8,$9,$2,$3,0*%
G04 Aperture macros list end*
%ADD10C,0.187500*%
%ADD11C,0.150000*%
%ADD12C,0.100000*%
%ADD13R,1.752600X1.752600*%
%ADD14C,1.752600*%
%ADD15RoundRect,0.050000X-0.889000X-0.889000X0.889000X-0.889000X0.889000X0.889000X-0.889000X0.889000X0*%
%ADD16RoundRect,0.050000X-0.450000X-0.600000X0.450000X-0.600000X0.450000X0.600000X-0.450000X0.600000X0*%
%ADD17C,2.005000*%
%ADD18C,1.801800*%
%ADD19C,4.087800*%
%ADD20C,2.386000*%
%ADD21RoundRect,0.050000X-0.876300X0.876300X-0.876300X-0.876300X0.876300X-0.876300X0.876300X0.876300X0*%
%ADD22C,1.852600*%
G04 APERTURE END LIST*
D10*
G36*
X125723098Y-100968447D02*
G01*
X125723098Y-100001245D01*
X126317432Y-100001245D01*
X126317432Y-100188824D01*
X126485136Y-100188824D01*
X126485136Y-100001245D01*
X126889602Y-100001245D01*
X126889602Y-100188824D01*
X127077180Y-100188824D01*
X127077180Y-100968447D01*
X126865055Y-100968447D01*
X126865055Y-100210989D01*
X126508583Y-100210989D01*
X126508583Y-100968447D01*
X126296458Y-100968447D01*
X126296458Y-100210989D01*
X125935223Y-100210989D01*
X125935223Y-100968447D01*
X125723098Y-100968447D01*
G37*
G36*
X127333635Y-100968447D02*
G01*
X127333635Y-100001245D01*
X127545760Y-100001245D01*
X127545760Y-100968447D01*
X127333635Y-100968447D01*
G37*
G36*
X127333635Y-99829970D02*
G01*
X127333635Y-99620226D01*
X127545760Y-99620226D01*
X127545760Y-99829970D01*
X127333635Y-99829970D01*
G37*
G36*
X127757152Y-100968447D02*
G01*
X127757152Y-100001245D01*
X128539981Y-100001245D01*
X128539981Y-100188824D01*
X128731315Y-100188824D01*
X128731315Y-100968447D01*
X128519190Y-100968447D01*
X128519190Y-100210989D01*
X127969277Y-100210989D01*
X127969277Y-100968447D01*
X127757152Y-100968447D01*
G37*
G36*
X128986671Y-100968447D02*
G01*
X128986671Y-100001245D01*
X129198796Y-100001245D01*
X129198796Y-100968447D01*
X128986671Y-100968447D01*
G37*
G36*
X128986671Y-99829970D02*
G01*
X128986671Y-99620226D01*
X129198796Y-99620226D01*
X129198796Y-99829970D01*
X128986671Y-99829970D01*
G37*
G36*
X130195673Y-100194685D02*
G01*
X130384351Y-100194685D01*
X130384351Y-101160605D01*
X130195673Y-101160605D01*
X130195673Y-101349466D01*
X129603628Y-101349466D01*
X129603628Y-101160605D01*
X129410188Y-101160605D01*
X129410188Y-100950861D01*
X129622313Y-100950861D01*
X129622313Y-101139722D01*
X130172226Y-101139722D01*
X130172226Y-100780868D01*
X129603628Y-100780868D01*
X129603628Y-100593290D01*
X129410188Y-100593290D01*
X129410188Y-100571125D01*
X129622313Y-100571125D01*
X130172226Y-100571125D01*
X130172226Y-100210989D01*
X129622313Y-100210989D01*
X129622313Y-100571125D01*
X129410188Y-100571125D01*
X129410188Y-100194685D01*
X129603628Y-100194685D01*
X129603628Y-100001245D01*
X130195673Y-100001245D01*
X130195673Y-100194685D01*
G37*
G36*
X131362177Y-100188824D02*
G01*
X131550854Y-100188824D01*
X131550854Y-100758703D01*
X131744295Y-100758703D01*
X131744295Y-100968447D01*
X131532170Y-100968447D01*
X131532170Y-100780868D01*
X131362177Y-100780868D01*
X131362177Y-100968447D01*
X130770132Y-100968447D01*
X130770132Y-100780868D01*
X130576692Y-100780868D01*
X130576692Y-100758703D01*
X130788817Y-100758703D01*
X131338729Y-100758703D01*
X131338729Y-100210989D01*
X130788817Y-100210989D01*
X130788817Y-100758703D01*
X130576692Y-100758703D01*
X130576692Y-100188824D01*
X130770132Y-100188824D01*
X130770132Y-100001245D01*
X131362177Y-100001245D01*
X131362177Y-100188824D01*
G37*
G36*
X131935170Y-100968447D02*
G01*
X131935170Y-100001245D01*
X132529505Y-100001245D01*
X132529505Y-100188824D01*
X132697208Y-100188824D01*
X132697208Y-100001245D01*
X133101674Y-100001245D01*
X133101674Y-100188824D01*
X133289253Y-100188824D01*
X133289253Y-100968447D01*
X133077128Y-100968447D01*
X133077128Y-100210989D01*
X132720655Y-100210989D01*
X132720655Y-100968447D01*
X132508531Y-100968447D01*
X132508531Y-100210989D01*
X132147295Y-100210989D01*
X132147295Y-100968447D01*
X131935170Y-100968447D01*
G37*
G36*
X133717166Y-100968447D02*
G01*
X133717166Y-100780868D01*
X133523726Y-100780868D01*
X133523726Y-100188824D01*
X133717166Y-100188824D01*
X133717166Y-100001245D01*
X134309211Y-100001245D01*
X134309211Y-100188824D01*
X134497889Y-100188824D01*
X134497889Y-100398567D01*
X134285764Y-100398567D01*
X134285764Y-100210989D01*
X133735851Y-100210989D01*
X133735851Y-100377684D01*
X134117786Y-100377684D01*
X134117786Y-100587428D01*
X133735851Y-100587428D01*
X133735851Y-100758703D01*
X134285764Y-100758703D01*
X134285764Y-100565263D01*
X134497889Y-100565263D01*
X134497889Y-100775006D01*
X134309211Y-100775006D01*
X134309211Y-100968447D01*
X133717166Y-100968447D01*
G37*
D11*
X124428571Y-95117295D02*
X124428571Y-94317295D01*
X124428571Y-94317295D02*
X124733333Y-94317295D01*
X124733333Y-94317295D02*
X124809523Y-94355390D01*
X124809523Y-94355390D02*
X124847618Y-94393485D01*
X124847618Y-94393485D02*
X124885714Y-94469676D01*
X124885714Y-94469676D02*
X124885714Y-94583961D01*
X124885714Y-94583961D02*
X124847618Y-94660152D01*
X124847618Y-94660152D02*
X124809523Y-94698247D01*
X124809523Y-94698247D02*
X124733333Y-94736342D01*
X124733333Y-94736342D02*
X124428571Y-94736342D01*
X125647618Y-95117295D02*
X125190475Y-95117295D01*
X125419047Y-95117295D02*
X125419047Y-94317295D01*
X125419047Y-94317295D02*
X125342856Y-94431580D01*
X125342856Y-94431580D02*
X125266666Y-94507771D01*
X125266666Y-94507771D02*
X125190475Y-94545866D01*
X126333333Y-94317295D02*
X126180952Y-94317295D01*
X126180952Y-94317295D02*
X126104761Y-94355390D01*
X126104761Y-94355390D02*
X126066666Y-94393485D01*
X126066666Y-94393485D02*
X125990476Y-94507771D01*
X125990476Y-94507771D02*
X125952380Y-94660152D01*
X125952380Y-94660152D02*
X125952380Y-94964914D01*
X125952380Y-94964914D02*
X125990476Y-95041104D01*
X125990476Y-95041104D02*
X126028571Y-95079200D01*
X126028571Y-95079200D02*
X126104761Y-95117295D01*
X126104761Y-95117295D02*
X126257142Y-95117295D01*
X126257142Y-95117295D02*
X126333333Y-95079200D01*
X126333333Y-95079200D02*
X126371428Y-95041104D01*
X126371428Y-95041104D02*
X126409523Y-94964914D01*
X126409523Y-94964914D02*
X126409523Y-94774438D01*
X126409523Y-94774438D02*
X126371428Y-94698247D01*
X126371428Y-94698247D02*
X126333333Y-94660152D01*
X126333333Y-94660152D02*
X126257142Y-94622057D01*
X126257142Y-94622057D02*
X126104761Y-94622057D01*
X126104761Y-94622057D02*
X126028571Y-94660152D01*
X126028571Y-94660152D02*
X125990476Y-94698247D01*
X125990476Y-94698247D02*
X125952380Y-94774438D01*
X124428571Y-92577295D02*
X124428571Y-91777295D01*
X124428571Y-91777295D02*
X124733333Y-91777295D01*
X124733333Y-91777295D02*
X124809523Y-91815390D01*
X124809523Y-91815390D02*
X124847618Y-91853485D01*
X124847618Y-91853485D02*
X124885714Y-91929676D01*
X124885714Y-91929676D02*
X124885714Y-92043961D01*
X124885714Y-92043961D02*
X124847618Y-92120152D01*
X124847618Y-92120152D02*
X124809523Y-92158247D01*
X124809523Y-92158247D02*
X124733333Y-92196342D01*
X124733333Y-92196342D02*
X124428571Y-92196342D01*
X125647618Y-92577295D02*
X125190475Y-92577295D01*
X125419047Y-92577295D02*
X125419047Y-91777295D01*
X125419047Y-91777295D02*
X125342856Y-91891580D01*
X125342856Y-91891580D02*
X125266666Y-91967771D01*
X125266666Y-91967771D02*
X125190475Y-92005866D01*
X126333333Y-92043961D02*
X126333333Y-92577295D01*
X126142857Y-91739200D02*
X125952380Y-92310628D01*
X125952380Y-92310628D02*
X126447619Y-92310628D01*
X124333333Y-76537295D02*
X124600000Y-77337295D01*
X124600000Y-77337295D02*
X124866666Y-76537295D01*
X125590476Y-77261104D02*
X125552380Y-77299200D01*
X125552380Y-77299200D02*
X125438095Y-77337295D01*
X125438095Y-77337295D02*
X125361904Y-77337295D01*
X125361904Y-77337295D02*
X125247618Y-77299200D01*
X125247618Y-77299200D02*
X125171428Y-77223009D01*
X125171428Y-77223009D02*
X125133333Y-77146819D01*
X125133333Y-77146819D02*
X125095237Y-76994438D01*
X125095237Y-76994438D02*
X125095237Y-76880152D01*
X125095237Y-76880152D02*
X125133333Y-76727771D01*
X125133333Y-76727771D02*
X125171428Y-76651580D01*
X125171428Y-76651580D02*
X125247618Y-76575390D01*
X125247618Y-76575390D02*
X125361904Y-76537295D01*
X125361904Y-76537295D02*
X125438095Y-76537295D01*
X125438095Y-76537295D02*
X125552380Y-76575390D01*
X125552380Y-76575390D02*
X125590476Y-76613485D01*
X126390476Y-77261104D02*
X126352380Y-77299200D01*
X126352380Y-77299200D02*
X126238095Y-77337295D01*
X126238095Y-77337295D02*
X126161904Y-77337295D01*
X126161904Y-77337295D02*
X126047618Y-77299200D01*
X126047618Y-77299200D02*
X125971428Y-77223009D01*
X125971428Y-77223009D02*
X125933333Y-77146819D01*
X125933333Y-77146819D02*
X125895237Y-76994438D01*
X125895237Y-76994438D02*
X125895237Y-76880152D01*
X125895237Y-76880152D02*
X125933333Y-76727771D01*
X125933333Y-76727771D02*
X125971428Y-76651580D01*
X125971428Y-76651580D02*
X126047618Y-76575390D01*
X126047618Y-76575390D02*
X126161904Y-76537295D01*
X126161904Y-76537295D02*
X126238095Y-76537295D01*
X126238095Y-76537295D02*
X126352380Y-76575390D01*
X126352380Y-76575390D02*
X126390476Y-76613485D01*
X134028571Y-79877295D02*
X134028571Y-79077295D01*
X134028571Y-79077295D02*
X134333333Y-79077295D01*
X134333333Y-79077295D02*
X134409523Y-79115390D01*
X134409523Y-79115390D02*
X134447618Y-79153485D01*
X134447618Y-79153485D02*
X134485714Y-79229676D01*
X134485714Y-79229676D02*
X134485714Y-79343961D01*
X134485714Y-79343961D02*
X134447618Y-79420152D01*
X134447618Y-79420152D02*
X134409523Y-79458247D01*
X134409523Y-79458247D02*
X134333333Y-79496342D01*
X134333333Y-79496342D02*
X134028571Y-79496342D01*
X134980952Y-79077295D02*
X135057142Y-79077295D01*
X135057142Y-79077295D02*
X135133333Y-79115390D01*
X135133333Y-79115390D02*
X135171428Y-79153485D01*
X135171428Y-79153485D02*
X135209523Y-79229676D01*
X135209523Y-79229676D02*
X135247618Y-79382057D01*
X135247618Y-79382057D02*
X135247618Y-79572533D01*
X135247618Y-79572533D02*
X135209523Y-79724914D01*
X135209523Y-79724914D02*
X135171428Y-79801104D01*
X135171428Y-79801104D02*
X135133333Y-79839200D01*
X135133333Y-79839200D02*
X135057142Y-79877295D01*
X135057142Y-79877295D02*
X134980952Y-79877295D01*
X134980952Y-79877295D02*
X134904761Y-79839200D01*
X134904761Y-79839200D02*
X134866666Y-79801104D01*
X134866666Y-79801104D02*
X134828571Y-79724914D01*
X134828571Y-79724914D02*
X134790475Y-79572533D01*
X134790475Y-79572533D02*
X134790475Y-79382057D01*
X134790475Y-79382057D02*
X134828571Y-79229676D01*
X134828571Y-79229676D02*
X134866666Y-79153485D01*
X134866666Y-79153485D02*
X134904761Y-79115390D01*
X134904761Y-79115390D02*
X134980952Y-79077295D01*
X135552380Y-79153485D02*
X135590476Y-79115390D01*
X135590476Y-79115390D02*
X135666666Y-79077295D01*
X135666666Y-79077295D02*
X135857142Y-79077295D01*
X135857142Y-79077295D02*
X135933333Y-79115390D01*
X135933333Y-79115390D02*
X135971428Y-79153485D01*
X135971428Y-79153485D02*
X136009523Y-79229676D01*
X136009523Y-79229676D02*
X136009523Y-79305866D01*
X136009523Y-79305866D02*
X135971428Y-79420152D01*
X135971428Y-79420152D02*
X135514285Y-79877295D01*
X135514285Y-79877295D02*
X136009523Y-79877295D01*
X134028571Y-84957295D02*
X134028571Y-84157295D01*
X134028571Y-84157295D02*
X134333333Y-84157295D01*
X134333333Y-84157295D02*
X134409523Y-84195390D01*
X134409523Y-84195390D02*
X134447618Y-84233485D01*
X134447618Y-84233485D02*
X134485714Y-84309676D01*
X134485714Y-84309676D02*
X134485714Y-84423961D01*
X134485714Y-84423961D02*
X134447618Y-84500152D01*
X134447618Y-84500152D02*
X134409523Y-84538247D01*
X134409523Y-84538247D02*
X134333333Y-84576342D01*
X134333333Y-84576342D02*
X134028571Y-84576342D01*
X134980952Y-84157295D02*
X135057142Y-84157295D01*
X135057142Y-84157295D02*
X135133333Y-84195390D01*
X135133333Y-84195390D02*
X135171428Y-84233485D01*
X135171428Y-84233485D02*
X135209523Y-84309676D01*
X135209523Y-84309676D02*
X135247618Y-84462057D01*
X135247618Y-84462057D02*
X135247618Y-84652533D01*
X135247618Y-84652533D02*
X135209523Y-84804914D01*
X135209523Y-84804914D02*
X135171428Y-84881104D01*
X135171428Y-84881104D02*
X135133333Y-84919200D01*
X135133333Y-84919200D02*
X135057142Y-84957295D01*
X135057142Y-84957295D02*
X134980952Y-84957295D01*
X134980952Y-84957295D02*
X134904761Y-84919200D01*
X134904761Y-84919200D02*
X134866666Y-84881104D01*
X134866666Y-84881104D02*
X134828571Y-84804914D01*
X134828571Y-84804914D02*
X134790475Y-84652533D01*
X134790475Y-84652533D02*
X134790475Y-84462057D01*
X134790475Y-84462057D02*
X134828571Y-84309676D01*
X134828571Y-84309676D02*
X134866666Y-84233485D01*
X134866666Y-84233485D02*
X134904761Y-84195390D01*
X134904761Y-84195390D02*
X134980952Y-84157295D01*
X135933333Y-84423961D02*
X135933333Y-84957295D01*
X135742857Y-84119200D02*
X135552380Y-84690628D01*
X135552380Y-84690628D02*
X136047619Y-84690628D01*
X124428571Y-97657295D02*
X124428571Y-96857295D01*
X124428571Y-96857295D02*
X124733333Y-96857295D01*
X124733333Y-96857295D02*
X124809523Y-96895390D01*
X124809523Y-96895390D02*
X124847618Y-96933485D01*
X124847618Y-96933485D02*
X124885714Y-97009676D01*
X124885714Y-97009676D02*
X124885714Y-97123961D01*
X124885714Y-97123961D02*
X124847618Y-97200152D01*
X124847618Y-97200152D02*
X124809523Y-97238247D01*
X124809523Y-97238247D02*
X124733333Y-97276342D01*
X124733333Y-97276342D02*
X124428571Y-97276342D01*
X125647618Y-97657295D02*
X125190475Y-97657295D01*
X125419047Y-97657295D02*
X125419047Y-96857295D01*
X125419047Y-96857295D02*
X125342856Y-96971580D01*
X125342856Y-96971580D02*
X125266666Y-97047771D01*
X125266666Y-97047771D02*
X125190475Y-97085866D01*
X126142857Y-96857295D02*
X126219047Y-96857295D01*
X126219047Y-96857295D02*
X126295238Y-96895390D01*
X126295238Y-96895390D02*
X126333333Y-96933485D01*
X126333333Y-96933485D02*
X126371428Y-97009676D01*
X126371428Y-97009676D02*
X126409523Y-97162057D01*
X126409523Y-97162057D02*
X126409523Y-97352533D01*
X126409523Y-97352533D02*
X126371428Y-97504914D01*
X126371428Y-97504914D02*
X126333333Y-97581104D01*
X126333333Y-97581104D02*
X126295238Y-97619200D01*
X126295238Y-97619200D02*
X126219047Y-97657295D01*
X126219047Y-97657295D02*
X126142857Y-97657295D01*
X126142857Y-97657295D02*
X126066666Y-97619200D01*
X126066666Y-97619200D02*
X126028571Y-97581104D01*
X126028571Y-97581104D02*
X125990476Y-97504914D01*
X125990476Y-97504914D02*
X125952380Y-97352533D01*
X125952380Y-97352533D02*
X125952380Y-97162057D01*
X125952380Y-97162057D02*
X125990476Y-97009676D01*
X125990476Y-97009676D02*
X126028571Y-96933485D01*
X126028571Y-96933485D02*
X126066666Y-96895390D01*
X126066666Y-96895390D02*
X126142857Y-96857295D01*
X134028571Y-97657295D02*
X134028571Y-96857295D01*
X134028571Y-96857295D02*
X134333333Y-96857295D01*
X134333333Y-96857295D02*
X134409523Y-96895390D01*
X134409523Y-96895390D02*
X134447618Y-96933485D01*
X134447618Y-96933485D02*
X134485714Y-97009676D01*
X134485714Y-97009676D02*
X134485714Y-97123961D01*
X134485714Y-97123961D02*
X134447618Y-97200152D01*
X134447618Y-97200152D02*
X134409523Y-97238247D01*
X134409523Y-97238247D02*
X134333333Y-97276342D01*
X134333333Y-97276342D02*
X134028571Y-97276342D01*
X134980952Y-96857295D02*
X135057142Y-96857295D01*
X135057142Y-96857295D02*
X135133333Y-96895390D01*
X135133333Y-96895390D02*
X135171428Y-96933485D01*
X135171428Y-96933485D02*
X135209523Y-97009676D01*
X135209523Y-97009676D02*
X135247618Y-97162057D01*
X135247618Y-97162057D02*
X135247618Y-97352533D01*
X135247618Y-97352533D02*
X135209523Y-97504914D01*
X135209523Y-97504914D02*
X135171428Y-97581104D01*
X135171428Y-97581104D02*
X135133333Y-97619200D01*
X135133333Y-97619200D02*
X135057142Y-97657295D01*
X135057142Y-97657295D02*
X134980952Y-97657295D01*
X134980952Y-97657295D02*
X134904761Y-97619200D01*
X134904761Y-97619200D02*
X134866666Y-97581104D01*
X134866666Y-97581104D02*
X134828571Y-97504914D01*
X134828571Y-97504914D02*
X134790475Y-97352533D01*
X134790475Y-97352533D02*
X134790475Y-97162057D01*
X134790475Y-97162057D02*
X134828571Y-97009676D01*
X134828571Y-97009676D02*
X134866666Y-96933485D01*
X134866666Y-96933485D02*
X134904761Y-96895390D01*
X134904761Y-96895390D02*
X134980952Y-96857295D01*
X135628571Y-97657295D02*
X135780952Y-97657295D01*
X135780952Y-97657295D02*
X135857142Y-97619200D01*
X135857142Y-97619200D02*
X135895238Y-97581104D01*
X135895238Y-97581104D02*
X135971428Y-97466819D01*
X135971428Y-97466819D02*
X136009523Y-97314438D01*
X136009523Y-97314438D02*
X136009523Y-97009676D01*
X136009523Y-97009676D02*
X135971428Y-96933485D01*
X135971428Y-96933485D02*
X135933333Y-96895390D01*
X135933333Y-96895390D02*
X135857142Y-96857295D01*
X135857142Y-96857295D02*
X135704761Y-96857295D01*
X135704761Y-96857295D02*
X135628571Y-96895390D01*
X135628571Y-96895390D02*
X135590476Y-96933485D01*
X135590476Y-96933485D02*
X135552380Y-97009676D01*
X135552380Y-97009676D02*
X135552380Y-97200152D01*
X135552380Y-97200152D02*
X135590476Y-97276342D01*
X135590476Y-97276342D02*
X135628571Y-97314438D01*
X135628571Y-97314438D02*
X135704761Y-97352533D01*
X135704761Y-97352533D02*
X135857142Y-97352533D01*
X135857142Y-97352533D02*
X135933333Y-97314438D01*
X135933333Y-97314438D02*
X135971428Y-97276342D01*
X135971428Y-97276342D02*
X136009523Y-97200152D01*
X124428571Y-79877295D02*
X124428571Y-79077295D01*
X124428571Y-79077295D02*
X124733333Y-79077295D01*
X124733333Y-79077295D02*
X124809523Y-79115390D01*
X124809523Y-79115390D02*
X124847618Y-79153485D01*
X124847618Y-79153485D02*
X124885714Y-79229676D01*
X124885714Y-79229676D02*
X124885714Y-79343961D01*
X124885714Y-79343961D02*
X124847618Y-79420152D01*
X124847618Y-79420152D02*
X124809523Y-79458247D01*
X124809523Y-79458247D02*
X124733333Y-79496342D01*
X124733333Y-79496342D02*
X124428571Y-79496342D01*
X125190475Y-79153485D02*
X125228571Y-79115390D01*
X125228571Y-79115390D02*
X125304761Y-79077295D01*
X125304761Y-79077295D02*
X125495237Y-79077295D01*
X125495237Y-79077295D02*
X125571428Y-79115390D01*
X125571428Y-79115390D02*
X125609523Y-79153485D01*
X125609523Y-79153485D02*
X125647618Y-79229676D01*
X125647618Y-79229676D02*
X125647618Y-79305866D01*
X125647618Y-79305866D02*
X125609523Y-79420152D01*
X125609523Y-79420152D02*
X125152380Y-79877295D01*
X125152380Y-79877295D02*
X125647618Y-79877295D01*
X126409523Y-79877295D02*
X125952380Y-79877295D01*
X126180952Y-79877295D02*
X126180952Y-79077295D01*
X126180952Y-79077295D02*
X126104761Y-79191580D01*
X126104761Y-79191580D02*
X126028571Y-79267771D01*
X126028571Y-79267771D02*
X125952380Y-79305866D01*
X134028571Y-82417295D02*
X134028571Y-81617295D01*
X134028571Y-81617295D02*
X134333333Y-81617295D01*
X134333333Y-81617295D02*
X134409523Y-81655390D01*
X134409523Y-81655390D02*
X134447618Y-81693485D01*
X134447618Y-81693485D02*
X134485714Y-81769676D01*
X134485714Y-81769676D02*
X134485714Y-81883961D01*
X134485714Y-81883961D02*
X134447618Y-81960152D01*
X134447618Y-81960152D02*
X134409523Y-81998247D01*
X134409523Y-81998247D02*
X134333333Y-82036342D01*
X134333333Y-82036342D02*
X134028571Y-82036342D01*
X134980952Y-81617295D02*
X135057142Y-81617295D01*
X135057142Y-81617295D02*
X135133333Y-81655390D01*
X135133333Y-81655390D02*
X135171428Y-81693485D01*
X135171428Y-81693485D02*
X135209523Y-81769676D01*
X135209523Y-81769676D02*
X135247618Y-81922057D01*
X135247618Y-81922057D02*
X135247618Y-82112533D01*
X135247618Y-82112533D02*
X135209523Y-82264914D01*
X135209523Y-82264914D02*
X135171428Y-82341104D01*
X135171428Y-82341104D02*
X135133333Y-82379200D01*
X135133333Y-82379200D02*
X135057142Y-82417295D01*
X135057142Y-82417295D02*
X134980952Y-82417295D01*
X134980952Y-82417295D02*
X134904761Y-82379200D01*
X134904761Y-82379200D02*
X134866666Y-82341104D01*
X134866666Y-82341104D02*
X134828571Y-82264914D01*
X134828571Y-82264914D02*
X134790475Y-82112533D01*
X134790475Y-82112533D02*
X134790475Y-81922057D01*
X134790475Y-81922057D02*
X134828571Y-81769676D01*
X134828571Y-81769676D02*
X134866666Y-81693485D01*
X134866666Y-81693485D02*
X134904761Y-81655390D01*
X134904761Y-81655390D02*
X134980952Y-81617295D01*
X135514285Y-81617295D02*
X136009523Y-81617295D01*
X136009523Y-81617295D02*
X135742857Y-81922057D01*
X135742857Y-81922057D02*
X135857142Y-81922057D01*
X135857142Y-81922057D02*
X135933333Y-81960152D01*
X135933333Y-81960152D02*
X135971428Y-81998247D01*
X135971428Y-81998247D02*
X136009523Y-82074438D01*
X136009523Y-82074438D02*
X136009523Y-82264914D01*
X136009523Y-82264914D02*
X135971428Y-82341104D01*
X135971428Y-82341104D02*
X135933333Y-82379200D01*
X135933333Y-82379200D02*
X135857142Y-82417295D01*
X135857142Y-82417295D02*
X135628571Y-82417295D01*
X135628571Y-82417295D02*
X135552380Y-82379200D01*
X135552380Y-82379200D02*
X135514285Y-82341104D01*
X134028571Y-90037295D02*
X134028571Y-89237295D01*
X134028571Y-89237295D02*
X134333333Y-89237295D01*
X134333333Y-89237295D02*
X134409523Y-89275390D01*
X134409523Y-89275390D02*
X134447618Y-89313485D01*
X134447618Y-89313485D02*
X134485714Y-89389676D01*
X134485714Y-89389676D02*
X134485714Y-89503961D01*
X134485714Y-89503961D02*
X134447618Y-89580152D01*
X134447618Y-89580152D02*
X134409523Y-89618247D01*
X134409523Y-89618247D02*
X134333333Y-89656342D01*
X134333333Y-89656342D02*
X134028571Y-89656342D01*
X134980952Y-89237295D02*
X135057142Y-89237295D01*
X135057142Y-89237295D02*
X135133333Y-89275390D01*
X135133333Y-89275390D02*
X135171428Y-89313485D01*
X135171428Y-89313485D02*
X135209523Y-89389676D01*
X135209523Y-89389676D02*
X135247618Y-89542057D01*
X135247618Y-89542057D02*
X135247618Y-89732533D01*
X135247618Y-89732533D02*
X135209523Y-89884914D01*
X135209523Y-89884914D02*
X135171428Y-89961104D01*
X135171428Y-89961104D02*
X135133333Y-89999200D01*
X135133333Y-89999200D02*
X135057142Y-90037295D01*
X135057142Y-90037295D02*
X134980952Y-90037295D01*
X134980952Y-90037295D02*
X134904761Y-89999200D01*
X134904761Y-89999200D02*
X134866666Y-89961104D01*
X134866666Y-89961104D02*
X134828571Y-89884914D01*
X134828571Y-89884914D02*
X134790475Y-89732533D01*
X134790475Y-89732533D02*
X134790475Y-89542057D01*
X134790475Y-89542057D02*
X134828571Y-89389676D01*
X134828571Y-89389676D02*
X134866666Y-89313485D01*
X134866666Y-89313485D02*
X134904761Y-89275390D01*
X134904761Y-89275390D02*
X134980952Y-89237295D01*
X135933333Y-89237295D02*
X135780952Y-89237295D01*
X135780952Y-89237295D02*
X135704761Y-89275390D01*
X135704761Y-89275390D02*
X135666666Y-89313485D01*
X135666666Y-89313485D02*
X135590476Y-89427771D01*
X135590476Y-89427771D02*
X135552380Y-89580152D01*
X135552380Y-89580152D02*
X135552380Y-89884914D01*
X135552380Y-89884914D02*
X135590476Y-89961104D01*
X135590476Y-89961104D02*
X135628571Y-89999200D01*
X135628571Y-89999200D02*
X135704761Y-90037295D01*
X135704761Y-90037295D02*
X135857142Y-90037295D01*
X135857142Y-90037295D02*
X135933333Y-89999200D01*
X135933333Y-89999200D02*
X135971428Y-89961104D01*
X135971428Y-89961104D02*
X136009523Y-89884914D01*
X136009523Y-89884914D02*
X136009523Y-89694438D01*
X136009523Y-89694438D02*
X135971428Y-89618247D01*
X135971428Y-89618247D02*
X135933333Y-89580152D01*
X135933333Y-89580152D02*
X135857142Y-89542057D01*
X135857142Y-89542057D02*
X135704761Y-89542057D01*
X135704761Y-89542057D02*
X135628571Y-89580152D01*
X135628571Y-89580152D02*
X135590476Y-89618247D01*
X135590476Y-89618247D02*
X135552380Y-89694438D01*
X134028571Y-92577295D02*
X134028571Y-91777295D01*
X134028571Y-91777295D02*
X134333333Y-91777295D01*
X134333333Y-91777295D02*
X134409523Y-91815390D01*
X134409523Y-91815390D02*
X134447618Y-91853485D01*
X134447618Y-91853485D02*
X134485714Y-91929676D01*
X134485714Y-91929676D02*
X134485714Y-92043961D01*
X134485714Y-92043961D02*
X134447618Y-92120152D01*
X134447618Y-92120152D02*
X134409523Y-92158247D01*
X134409523Y-92158247D02*
X134333333Y-92196342D01*
X134333333Y-92196342D02*
X134028571Y-92196342D01*
X134980952Y-91777295D02*
X135057142Y-91777295D01*
X135057142Y-91777295D02*
X135133333Y-91815390D01*
X135133333Y-91815390D02*
X135171428Y-91853485D01*
X135171428Y-91853485D02*
X135209523Y-91929676D01*
X135209523Y-91929676D02*
X135247618Y-92082057D01*
X135247618Y-92082057D02*
X135247618Y-92272533D01*
X135247618Y-92272533D02*
X135209523Y-92424914D01*
X135209523Y-92424914D02*
X135171428Y-92501104D01*
X135171428Y-92501104D02*
X135133333Y-92539200D01*
X135133333Y-92539200D02*
X135057142Y-92577295D01*
X135057142Y-92577295D02*
X134980952Y-92577295D01*
X134980952Y-92577295D02*
X134904761Y-92539200D01*
X134904761Y-92539200D02*
X134866666Y-92501104D01*
X134866666Y-92501104D02*
X134828571Y-92424914D01*
X134828571Y-92424914D02*
X134790475Y-92272533D01*
X134790475Y-92272533D02*
X134790475Y-92082057D01*
X134790475Y-92082057D02*
X134828571Y-91929676D01*
X134828571Y-91929676D02*
X134866666Y-91853485D01*
X134866666Y-91853485D02*
X134904761Y-91815390D01*
X134904761Y-91815390D02*
X134980952Y-91777295D01*
X135514285Y-91777295D02*
X136047619Y-91777295D01*
X136047619Y-91777295D02*
X135704761Y-92577295D01*
X124847619Y-69717295D02*
X124580952Y-69336342D01*
X124390476Y-69717295D02*
X124390476Y-68917295D01*
X124390476Y-68917295D02*
X124695238Y-68917295D01*
X124695238Y-68917295D02*
X124771428Y-68955390D01*
X124771428Y-68955390D02*
X124809523Y-68993485D01*
X124809523Y-68993485D02*
X124847619Y-69069676D01*
X124847619Y-69069676D02*
X124847619Y-69183961D01*
X124847619Y-69183961D02*
X124809523Y-69260152D01*
X124809523Y-69260152D02*
X124771428Y-69298247D01*
X124771428Y-69298247D02*
X124695238Y-69336342D01*
X124695238Y-69336342D02*
X124390476Y-69336342D01*
X125152380Y-69488723D02*
X125533333Y-69488723D01*
X125076190Y-69717295D02*
X125342857Y-68917295D01*
X125342857Y-68917295D02*
X125609523Y-69717295D01*
X125799999Y-68917295D02*
X125990475Y-69717295D01*
X125990475Y-69717295D02*
X126142856Y-69145866D01*
X126142856Y-69145866D02*
X126295237Y-69717295D01*
X126295237Y-69717295D02*
X126485714Y-68917295D01*
X134390476Y-74035390D02*
X134314286Y-73997295D01*
X134314286Y-73997295D02*
X134200000Y-73997295D01*
X134200000Y-73997295D02*
X134085714Y-74035390D01*
X134085714Y-74035390D02*
X134009524Y-74111580D01*
X134009524Y-74111580D02*
X133971429Y-74187771D01*
X133971429Y-74187771D02*
X133933333Y-74340152D01*
X133933333Y-74340152D02*
X133933333Y-74454438D01*
X133933333Y-74454438D02*
X133971429Y-74606819D01*
X133971429Y-74606819D02*
X134009524Y-74683009D01*
X134009524Y-74683009D02*
X134085714Y-74759200D01*
X134085714Y-74759200D02*
X134200000Y-74797295D01*
X134200000Y-74797295D02*
X134276191Y-74797295D01*
X134276191Y-74797295D02*
X134390476Y-74759200D01*
X134390476Y-74759200D02*
X134428572Y-74721104D01*
X134428572Y-74721104D02*
X134428572Y-74454438D01*
X134428572Y-74454438D02*
X134276191Y-74454438D01*
X134771429Y-74797295D02*
X134771429Y-73997295D01*
X134771429Y-73997295D02*
X135228572Y-74797295D01*
X135228572Y-74797295D02*
X135228572Y-73997295D01*
X135609524Y-74797295D02*
X135609524Y-73997295D01*
X135609524Y-73997295D02*
X135800000Y-73997295D01*
X135800000Y-73997295D02*
X135914286Y-74035390D01*
X135914286Y-74035390D02*
X135990476Y-74111580D01*
X135990476Y-74111580D02*
X136028571Y-74187771D01*
X136028571Y-74187771D02*
X136066667Y-74340152D01*
X136066667Y-74340152D02*
X136066667Y-74454438D01*
X136066667Y-74454438D02*
X136028571Y-74606819D01*
X136028571Y-74606819D02*
X135990476Y-74683009D01*
X135990476Y-74683009D02*
X135914286Y-74759200D01*
X135914286Y-74759200D02*
X135800000Y-74797295D01*
X135800000Y-74797295D02*
X135609524Y-74797295D01*
X124428571Y-87497295D02*
X124428571Y-86697295D01*
X124428571Y-86697295D02*
X124733333Y-86697295D01*
X124733333Y-86697295D02*
X124809523Y-86735390D01*
X124809523Y-86735390D02*
X124847618Y-86773485D01*
X124847618Y-86773485D02*
X124885714Y-86849676D01*
X124885714Y-86849676D02*
X124885714Y-86963961D01*
X124885714Y-86963961D02*
X124847618Y-87040152D01*
X124847618Y-87040152D02*
X124809523Y-87078247D01*
X124809523Y-87078247D02*
X124733333Y-87116342D01*
X124733333Y-87116342D02*
X124428571Y-87116342D01*
X125647618Y-87497295D02*
X125190475Y-87497295D01*
X125419047Y-87497295D02*
X125419047Y-86697295D01*
X125419047Y-86697295D02*
X125342856Y-86811580D01*
X125342856Y-86811580D02*
X125266666Y-86887771D01*
X125266666Y-86887771D02*
X125190475Y-86925866D01*
X126104761Y-87040152D02*
X126028571Y-87002057D01*
X126028571Y-87002057D02*
X125990476Y-86963961D01*
X125990476Y-86963961D02*
X125952380Y-86887771D01*
X125952380Y-86887771D02*
X125952380Y-86849676D01*
X125952380Y-86849676D02*
X125990476Y-86773485D01*
X125990476Y-86773485D02*
X126028571Y-86735390D01*
X126028571Y-86735390D02*
X126104761Y-86697295D01*
X126104761Y-86697295D02*
X126257142Y-86697295D01*
X126257142Y-86697295D02*
X126333333Y-86735390D01*
X126333333Y-86735390D02*
X126371428Y-86773485D01*
X126371428Y-86773485D02*
X126409523Y-86849676D01*
X126409523Y-86849676D02*
X126409523Y-86887771D01*
X126409523Y-86887771D02*
X126371428Y-86963961D01*
X126371428Y-86963961D02*
X126333333Y-87002057D01*
X126333333Y-87002057D02*
X126257142Y-87040152D01*
X126257142Y-87040152D02*
X126104761Y-87040152D01*
X126104761Y-87040152D02*
X126028571Y-87078247D01*
X126028571Y-87078247D02*
X125990476Y-87116342D01*
X125990476Y-87116342D02*
X125952380Y-87192533D01*
X125952380Y-87192533D02*
X125952380Y-87344914D01*
X125952380Y-87344914D02*
X125990476Y-87421104D01*
X125990476Y-87421104D02*
X126028571Y-87459200D01*
X126028571Y-87459200D02*
X126104761Y-87497295D01*
X126104761Y-87497295D02*
X126257142Y-87497295D01*
X126257142Y-87497295D02*
X126333333Y-87459200D01*
X126333333Y-87459200D02*
X126371428Y-87421104D01*
X126371428Y-87421104D02*
X126409523Y-87344914D01*
X126409523Y-87344914D02*
X126409523Y-87192533D01*
X126409523Y-87192533D02*
X126371428Y-87116342D01*
X126371428Y-87116342D02*
X126333333Y-87078247D01*
X126333333Y-87078247D02*
X126257142Y-87040152D01*
X124961905Y-74797295D02*
X124695238Y-74416342D01*
X124504762Y-74797295D02*
X124504762Y-73997295D01*
X124504762Y-73997295D02*
X124809524Y-73997295D01*
X124809524Y-73997295D02*
X124885714Y-74035390D01*
X124885714Y-74035390D02*
X124923809Y-74073485D01*
X124923809Y-74073485D02*
X124961905Y-74149676D01*
X124961905Y-74149676D02*
X124961905Y-74263961D01*
X124961905Y-74263961D02*
X124923809Y-74340152D01*
X124923809Y-74340152D02*
X124885714Y-74378247D01*
X124885714Y-74378247D02*
X124809524Y-74416342D01*
X124809524Y-74416342D02*
X124504762Y-74416342D01*
X125266666Y-74759200D02*
X125380952Y-74797295D01*
X125380952Y-74797295D02*
X125571428Y-74797295D01*
X125571428Y-74797295D02*
X125647619Y-74759200D01*
X125647619Y-74759200D02*
X125685714Y-74721104D01*
X125685714Y-74721104D02*
X125723809Y-74644914D01*
X125723809Y-74644914D02*
X125723809Y-74568723D01*
X125723809Y-74568723D02*
X125685714Y-74492533D01*
X125685714Y-74492533D02*
X125647619Y-74454438D01*
X125647619Y-74454438D02*
X125571428Y-74416342D01*
X125571428Y-74416342D02*
X125419047Y-74378247D01*
X125419047Y-74378247D02*
X125342857Y-74340152D01*
X125342857Y-74340152D02*
X125304762Y-74302057D01*
X125304762Y-74302057D02*
X125266666Y-74225866D01*
X125266666Y-74225866D02*
X125266666Y-74149676D01*
X125266666Y-74149676D02*
X125304762Y-74073485D01*
X125304762Y-74073485D02*
X125342857Y-74035390D01*
X125342857Y-74035390D02*
X125419047Y-73997295D01*
X125419047Y-73997295D02*
X125609524Y-73997295D01*
X125609524Y-73997295D02*
X125723809Y-74035390D01*
X125952381Y-73997295D02*
X126409524Y-73997295D01*
X126180952Y-74797295D02*
X126180952Y-73997295D01*
X124428571Y-82417295D02*
X124428571Y-81617295D01*
X124428571Y-81617295D02*
X124733333Y-81617295D01*
X124733333Y-81617295D02*
X124809523Y-81655390D01*
X124809523Y-81655390D02*
X124847618Y-81693485D01*
X124847618Y-81693485D02*
X124885714Y-81769676D01*
X124885714Y-81769676D02*
X124885714Y-81883961D01*
X124885714Y-81883961D02*
X124847618Y-81960152D01*
X124847618Y-81960152D02*
X124809523Y-81998247D01*
X124809523Y-81998247D02*
X124733333Y-82036342D01*
X124733333Y-82036342D02*
X124428571Y-82036342D01*
X125190475Y-81693485D02*
X125228571Y-81655390D01*
X125228571Y-81655390D02*
X125304761Y-81617295D01*
X125304761Y-81617295D02*
X125495237Y-81617295D01*
X125495237Y-81617295D02*
X125571428Y-81655390D01*
X125571428Y-81655390D02*
X125609523Y-81693485D01*
X125609523Y-81693485D02*
X125647618Y-81769676D01*
X125647618Y-81769676D02*
X125647618Y-81845866D01*
X125647618Y-81845866D02*
X125609523Y-81960152D01*
X125609523Y-81960152D02*
X125152380Y-82417295D01*
X125152380Y-82417295D02*
X125647618Y-82417295D01*
X126142857Y-81617295D02*
X126219047Y-81617295D01*
X126219047Y-81617295D02*
X126295238Y-81655390D01*
X126295238Y-81655390D02*
X126333333Y-81693485D01*
X126333333Y-81693485D02*
X126371428Y-81769676D01*
X126371428Y-81769676D02*
X126409523Y-81922057D01*
X126409523Y-81922057D02*
X126409523Y-82112533D01*
X126409523Y-82112533D02*
X126371428Y-82264914D01*
X126371428Y-82264914D02*
X126333333Y-82341104D01*
X126333333Y-82341104D02*
X126295238Y-82379200D01*
X126295238Y-82379200D02*
X126219047Y-82417295D01*
X126219047Y-82417295D02*
X126142857Y-82417295D01*
X126142857Y-82417295D02*
X126066666Y-82379200D01*
X126066666Y-82379200D02*
X126028571Y-82341104D01*
X126028571Y-82341104D02*
X125990476Y-82264914D01*
X125990476Y-82264914D02*
X125952380Y-82112533D01*
X125952380Y-82112533D02*
X125952380Y-81922057D01*
X125952380Y-81922057D02*
X125990476Y-81769676D01*
X125990476Y-81769676D02*
X126028571Y-81693485D01*
X126028571Y-81693485D02*
X126066666Y-81655390D01*
X126066666Y-81655390D02*
X126142857Y-81617295D01*
X134028571Y-95117295D02*
X134028571Y-94317295D01*
X134028571Y-94317295D02*
X134333333Y-94317295D01*
X134333333Y-94317295D02*
X134409523Y-94355390D01*
X134409523Y-94355390D02*
X134447618Y-94393485D01*
X134447618Y-94393485D02*
X134485714Y-94469676D01*
X134485714Y-94469676D02*
X134485714Y-94583961D01*
X134485714Y-94583961D02*
X134447618Y-94660152D01*
X134447618Y-94660152D02*
X134409523Y-94698247D01*
X134409523Y-94698247D02*
X134333333Y-94736342D01*
X134333333Y-94736342D02*
X134028571Y-94736342D01*
X134980952Y-94317295D02*
X135057142Y-94317295D01*
X135057142Y-94317295D02*
X135133333Y-94355390D01*
X135133333Y-94355390D02*
X135171428Y-94393485D01*
X135171428Y-94393485D02*
X135209523Y-94469676D01*
X135209523Y-94469676D02*
X135247618Y-94622057D01*
X135247618Y-94622057D02*
X135247618Y-94812533D01*
X135247618Y-94812533D02*
X135209523Y-94964914D01*
X135209523Y-94964914D02*
X135171428Y-95041104D01*
X135171428Y-95041104D02*
X135133333Y-95079200D01*
X135133333Y-95079200D02*
X135057142Y-95117295D01*
X135057142Y-95117295D02*
X134980952Y-95117295D01*
X134980952Y-95117295D02*
X134904761Y-95079200D01*
X134904761Y-95079200D02*
X134866666Y-95041104D01*
X134866666Y-95041104D02*
X134828571Y-94964914D01*
X134828571Y-94964914D02*
X134790475Y-94812533D01*
X134790475Y-94812533D02*
X134790475Y-94622057D01*
X134790475Y-94622057D02*
X134828571Y-94469676D01*
X134828571Y-94469676D02*
X134866666Y-94393485D01*
X134866666Y-94393485D02*
X134904761Y-94355390D01*
X134904761Y-94355390D02*
X134980952Y-94317295D01*
X135704761Y-94660152D02*
X135628571Y-94622057D01*
X135628571Y-94622057D02*
X135590476Y-94583961D01*
X135590476Y-94583961D02*
X135552380Y-94507771D01*
X135552380Y-94507771D02*
X135552380Y-94469676D01*
X135552380Y-94469676D02*
X135590476Y-94393485D01*
X135590476Y-94393485D02*
X135628571Y-94355390D01*
X135628571Y-94355390D02*
X135704761Y-94317295D01*
X135704761Y-94317295D02*
X135857142Y-94317295D01*
X135857142Y-94317295D02*
X135933333Y-94355390D01*
X135933333Y-94355390D02*
X135971428Y-94393485D01*
X135971428Y-94393485D02*
X136009523Y-94469676D01*
X136009523Y-94469676D02*
X136009523Y-94507771D01*
X136009523Y-94507771D02*
X135971428Y-94583961D01*
X135971428Y-94583961D02*
X135933333Y-94622057D01*
X135933333Y-94622057D02*
X135857142Y-94660152D01*
X135857142Y-94660152D02*
X135704761Y-94660152D01*
X135704761Y-94660152D02*
X135628571Y-94698247D01*
X135628571Y-94698247D02*
X135590476Y-94736342D01*
X135590476Y-94736342D02*
X135552380Y-94812533D01*
X135552380Y-94812533D02*
X135552380Y-94964914D01*
X135552380Y-94964914D02*
X135590476Y-95041104D01*
X135590476Y-95041104D02*
X135628571Y-95079200D01*
X135628571Y-95079200D02*
X135704761Y-95117295D01*
X135704761Y-95117295D02*
X135857142Y-95117295D01*
X135857142Y-95117295D02*
X135933333Y-95079200D01*
X135933333Y-95079200D02*
X135971428Y-95041104D01*
X135971428Y-95041104D02*
X136009523Y-94964914D01*
X136009523Y-94964914D02*
X136009523Y-94812533D01*
X136009523Y-94812533D02*
X135971428Y-94736342D01*
X135971428Y-94736342D02*
X135933333Y-94698247D01*
X135933333Y-94698247D02*
X135857142Y-94660152D01*
X124428571Y-90037295D02*
X124428571Y-89237295D01*
X124428571Y-89237295D02*
X124733333Y-89237295D01*
X124733333Y-89237295D02*
X124809523Y-89275390D01*
X124809523Y-89275390D02*
X124847618Y-89313485D01*
X124847618Y-89313485D02*
X124885714Y-89389676D01*
X124885714Y-89389676D02*
X124885714Y-89503961D01*
X124885714Y-89503961D02*
X124847618Y-89580152D01*
X124847618Y-89580152D02*
X124809523Y-89618247D01*
X124809523Y-89618247D02*
X124733333Y-89656342D01*
X124733333Y-89656342D02*
X124428571Y-89656342D01*
X125647618Y-90037295D02*
X125190475Y-90037295D01*
X125419047Y-90037295D02*
X125419047Y-89237295D01*
X125419047Y-89237295D02*
X125342856Y-89351580D01*
X125342856Y-89351580D02*
X125266666Y-89427771D01*
X125266666Y-89427771D02*
X125190475Y-89465866D01*
X126371428Y-89237295D02*
X125990476Y-89237295D01*
X125990476Y-89237295D02*
X125952380Y-89618247D01*
X125952380Y-89618247D02*
X125990476Y-89580152D01*
X125990476Y-89580152D02*
X126066666Y-89542057D01*
X126066666Y-89542057D02*
X126257142Y-89542057D01*
X126257142Y-89542057D02*
X126333333Y-89580152D01*
X126333333Y-89580152D02*
X126371428Y-89618247D01*
X126371428Y-89618247D02*
X126409523Y-89694438D01*
X126409523Y-89694438D02*
X126409523Y-89884914D01*
X126409523Y-89884914D02*
X126371428Y-89961104D01*
X126371428Y-89961104D02*
X126333333Y-89999200D01*
X126333333Y-89999200D02*
X126257142Y-90037295D01*
X126257142Y-90037295D02*
X126066666Y-90037295D01*
X126066666Y-90037295D02*
X125990476Y-89999200D01*
X125990476Y-89999200D02*
X125952380Y-89961104D01*
X124428571Y-84957295D02*
X124428571Y-84157295D01*
X124428571Y-84157295D02*
X124733333Y-84157295D01*
X124733333Y-84157295D02*
X124809523Y-84195390D01*
X124809523Y-84195390D02*
X124847618Y-84233485D01*
X124847618Y-84233485D02*
X124885714Y-84309676D01*
X124885714Y-84309676D02*
X124885714Y-84423961D01*
X124885714Y-84423961D02*
X124847618Y-84500152D01*
X124847618Y-84500152D02*
X124809523Y-84538247D01*
X124809523Y-84538247D02*
X124733333Y-84576342D01*
X124733333Y-84576342D02*
X124428571Y-84576342D01*
X125647618Y-84957295D02*
X125190475Y-84957295D01*
X125419047Y-84957295D02*
X125419047Y-84157295D01*
X125419047Y-84157295D02*
X125342856Y-84271580D01*
X125342856Y-84271580D02*
X125266666Y-84347771D01*
X125266666Y-84347771D02*
X125190475Y-84385866D01*
X126028571Y-84957295D02*
X126180952Y-84957295D01*
X126180952Y-84957295D02*
X126257142Y-84919200D01*
X126257142Y-84919200D02*
X126295238Y-84881104D01*
X126295238Y-84881104D02*
X126371428Y-84766819D01*
X126371428Y-84766819D02*
X126409523Y-84614438D01*
X126409523Y-84614438D02*
X126409523Y-84309676D01*
X126409523Y-84309676D02*
X126371428Y-84233485D01*
X126371428Y-84233485D02*
X126333333Y-84195390D01*
X126333333Y-84195390D02*
X126257142Y-84157295D01*
X126257142Y-84157295D02*
X126104761Y-84157295D01*
X126104761Y-84157295D02*
X126028571Y-84195390D01*
X126028571Y-84195390D02*
X125990476Y-84233485D01*
X125990476Y-84233485D02*
X125952380Y-84309676D01*
X125952380Y-84309676D02*
X125952380Y-84500152D01*
X125952380Y-84500152D02*
X125990476Y-84576342D01*
X125990476Y-84576342D02*
X126028571Y-84614438D01*
X126028571Y-84614438D02*
X126104761Y-84652533D01*
X126104761Y-84652533D02*
X126257142Y-84652533D01*
X126257142Y-84652533D02*
X126333333Y-84614438D01*
X126333333Y-84614438D02*
X126371428Y-84576342D01*
X126371428Y-84576342D02*
X126409523Y-84500152D01*
X134028571Y-72257295D02*
X134028571Y-71457295D01*
X134028571Y-71457295D02*
X134333333Y-71457295D01*
X134333333Y-71457295D02*
X134409523Y-71495390D01*
X134409523Y-71495390D02*
X134447618Y-71533485D01*
X134447618Y-71533485D02*
X134485714Y-71609676D01*
X134485714Y-71609676D02*
X134485714Y-71723961D01*
X134485714Y-71723961D02*
X134447618Y-71800152D01*
X134447618Y-71800152D02*
X134409523Y-71838247D01*
X134409523Y-71838247D02*
X134333333Y-71876342D01*
X134333333Y-71876342D02*
X134028571Y-71876342D01*
X134980952Y-71457295D02*
X135057142Y-71457295D01*
X135057142Y-71457295D02*
X135133333Y-71495390D01*
X135133333Y-71495390D02*
X135171428Y-71533485D01*
X135171428Y-71533485D02*
X135209523Y-71609676D01*
X135209523Y-71609676D02*
X135247618Y-71762057D01*
X135247618Y-71762057D02*
X135247618Y-71952533D01*
X135247618Y-71952533D02*
X135209523Y-72104914D01*
X135209523Y-72104914D02*
X135171428Y-72181104D01*
X135171428Y-72181104D02*
X135133333Y-72219200D01*
X135133333Y-72219200D02*
X135057142Y-72257295D01*
X135057142Y-72257295D02*
X134980952Y-72257295D01*
X134980952Y-72257295D02*
X134904761Y-72219200D01*
X134904761Y-72219200D02*
X134866666Y-72181104D01*
X134866666Y-72181104D02*
X134828571Y-72104914D01*
X134828571Y-72104914D02*
X134790475Y-71952533D01*
X134790475Y-71952533D02*
X134790475Y-71762057D01*
X134790475Y-71762057D02*
X134828571Y-71609676D01*
X134828571Y-71609676D02*
X134866666Y-71533485D01*
X134866666Y-71533485D02*
X134904761Y-71495390D01*
X134904761Y-71495390D02*
X134980952Y-71457295D01*
X135742857Y-71457295D02*
X135819047Y-71457295D01*
X135819047Y-71457295D02*
X135895238Y-71495390D01*
X135895238Y-71495390D02*
X135933333Y-71533485D01*
X135933333Y-71533485D02*
X135971428Y-71609676D01*
X135971428Y-71609676D02*
X136009523Y-71762057D01*
X136009523Y-71762057D02*
X136009523Y-71952533D01*
X136009523Y-71952533D02*
X135971428Y-72104914D01*
X135971428Y-72104914D02*
X135933333Y-72181104D01*
X135933333Y-72181104D02*
X135895238Y-72219200D01*
X135895238Y-72219200D02*
X135819047Y-72257295D01*
X135819047Y-72257295D02*
X135742857Y-72257295D01*
X135742857Y-72257295D02*
X135666666Y-72219200D01*
X135666666Y-72219200D02*
X135628571Y-72181104D01*
X135628571Y-72181104D02*
X135590476Y-72104914D01*
X135590476Y-72104914D02*
X135552380Y-71952533D01*
X135552380Y-71952533D02*
X135552380Y-71762057D01*
X135552380Y-71762057D02*
X135590476Y-71609676D01*
X135590476Y-71609676D02*
X135628571Y-71533485D01*
X135628571Y-71533485D02*
X135666666Y-71495390D01*
X135666666Y-71495390D02*
X135742857Y-71457295D01*
X134028571Y-69717295D02*
X134028571Y-68917295D01*
X134028571Y-68917295D02*
X134333333Y-68917295D01*
X134333333Y-68917295D02*
X134409523Y-68955390D01*
X134409523Y-68955390D02*
X134447618Y-68993485D01*
X134447618Y-68993485D02*
X134485714Y-69069676D01*
X134485714Y-69069676D02*
X134485714Y-69183961D01*
X134485714Y-69183961D02*
X134447618Y-69260152D01*
X134447618Y-69260152D02*
X134409523Y-69298247D01*
X134409523Y-69298247D02*
X134333333Y-69336342D01*
X134333333Y-69336342D02*
X134028571Y-69336342D01*
X134980952Y-68917295D02*
X135057142Y-68917295D01*
X135057142Y-68917295D02*
X135133333Y-68955390D01*
X135133333Y-68955390D02*
X135171428Y-68993485D01*
X135171428Y-68993485D02*
X135209523Y-69069676D01*
X135209523Y-69069676D02*
X135247618Y-69222057D01*
X135247618Y-69222057D02*
X135247618Y-69412533D01*
X135247618Y-69412533D02*
X135209523Y-69564914D01*
X135209523Y-69564914D02*
X135171428Y-69641104D01*
X135171428Y-69641104D02*
X135133333Y-69679200D01*
X135133333Y-69679200D02*
X135057142Y-69717295D01*
X135057142Y-69717295D02*
X134980952Y-69717295D01*
X134980952Y-69717295D02*
X134904761Y-69679200D01*
X134904761Y-69679200D02*
X134866666Y-69641104D01*
X134866666Y-69641104D02*
X134828571Y-69564914D01*
X134828571Y-69564914D02*
X134790475Y-69412533D01*
X134790475Y-69412533D02*
X134790475Y-69222057D01*
X134790475Y-69222057D02*
X134828571Y-69069676D01*
X134828571Y-69069676D02*
X134866666Y-68993485D01*
X134866666Y-68993485D02*
X134904761Y-68955390D01*
X134904761Y-68955390D02*
X134980952Y-68917295D01*
X136009523Y-69717295D02*
X135552380Y-69717295D01*
X135780952Y-69717295D02*
X135780952Y-68917295D01*
X135780952Y-68917295D02*
X135704761Y-69031580D01*
X135704761Y-69031580D02*
X135628571Y-69107771D01*
X135628571Y-69107771D02*
X135552380Y-69145866D01*
X134390476Y-76575390D02*
X134314286Y-76537295D01*
X134314286Y-76537295D02*
X134200000Y-76537295D01*
X134200000Y-76537295D02*
X134085714Y-76575390D01*
X134085714Y-76575390D02*
X134009524Y-76651580D01*
X134009524Y-76651580D02*
X133971429Y-76727771D01*
X133971429Y-76727771D02*
X133933333Y-76880152D01*
X133933333Y-76880152D02*
X133933333Y-76994438D01*
X133933333Y-76994438D02*
X133971429Y-77146819D01*
X133971429Y-77146819D02*
X134009524Y-77223009D01*
X134009524Y-77223009D02*
X134085714Y-77299200D01*
X134085714Y-77299200D02*
X134200000Y-77337295D01*
X134200000Y-77337295D02*
X134276191Y-77337295D01*
X134276191Y-77337295D02*
X134390476Y-77299200D01*
X134390476Y-77299200D02*
X134428572Y-77261104D01*
X134428572Y-77261104D02*
X134428572Y-76994438D01*
X134428572Y-76994438D02*
X134276191Y-76994438D01*
X134771429Y-77337295D02*
X134771429Y-76537295D01*
X134771429Y-76537295D02*
X135228572Y-77337295D01*
X135228572Y-77337295D02*
X135228572Y-76537295D01*
X135609524Y-77337295D02*
X135609524Y-76537295D01*
X135609524Y-76537295D02*
X135800000Y-76537295D01*
X135800000Y-76537295D02*
X135914286Y-76575390D01*
X135914286Y-76575390D02*
X135990476Y-76651580D01*
X135990476Y-76651580D02*
X136028571Y-76727771D01*
X136028571Y-76727771D02*
X136066667Y-76880152D01*
X136066667Y-76880152D02*
X136066667Y-76994438D01*
X136066667Y-76994438D02*
X136028571Y-77146819D01*
X136028571Y-77146819D02*
X135990476Y-77223009D01*
X135990476Y-77223009D02*
X135914286Y-77299200D01*
X135914286Y-77299200D02*
X135800000Y-77337295D01*
X135800000Y-77337295D02*
X135609524Y-77337295D01*
X124790476Y-71495390D02*
X124714286Y-71457295D01*
X124714286Y-71457295D02*
X124600000Y-71457295D01*
X124600000Y-71457295D02*
X124485714Y-71495390D01*
X124485714Y-71495390D02*
X124409524Y-71571580D01*
X124409524Y-71571580D02*
X124371429Y-71647771D01*
X124371429Y-71647771D02*
X124333333Y-71800152D01*
X124333333Y-71800152D02*
X124333333Y-71914438D01*
X124333333Y-71914438D02*
X124371429Y-72066819D01*
X124371429Y-72066819D02*
X124409524Y-72143009D01*
X124409524Y-72143009D02*
X124485714Y-72219200D01*
X124485714Y-72219200D02*
X124600000Y-72257295D01*
X124600000Y-72257295D02*
X124676191Y-72257295D01*
X124676191Y-72257295D02*
X124790476Y-72219200D01*
X124790476Y-72219200D02*
X124828572Y-72181104D01*
X124828572Y-72181104D02*
X124828572Y-71914438D01*
X124828572Y-71914438D02*
X124676191Y-71914438D01*
X125171429Y-72257295D02*
X125171429Y-71457295D01*
X125171429Y-71457295D02*
X125628572Y-72257295D01*
X125628572Y-72257295D02*
X125628572Y-71457295D01*
X126009524Y-72257295D02*
X126009524Y-71457295D01*
X126009524Y-71457295D02*
X126200000Y-71457295D01*
X126200000Y-71457295D02*
X126314286Y-71495390D01*
X126314286Y-71495390D02*
X126390476Y-71571580D01*
X126390476Y-71571580D02*
X126428571Y-71647771D01*
X126428571Y-71647771D02*
X126466667Y-71800152D01*
X126466667Y-71800152D02*
X126466667Y-71914438D01*
X126466667Y-71914438D02*
X126428571Y-72066819D01*
X126428571Y-72066819D02*
X126390476Y-72143009D01*
X126390476Y-72143009D02*
X126314286Y-72219200D01*
X126314286Y-72219200D02*
X126200000Y-72257295D01*
X126200000Y-72257295D02*
X126009524Y-72257295D01*
X134028571Y-87497295D02*
X134028571Y-86697295D01*
X134028571Y-86697295D02*
X134333333Y-86697295D01*
X134333333Y-86697295D02*
X134409523Y-86735390D01*
X134409523Y-86735390D02*
X134447618Y-86773485D01*
X134447618Y-86773485D02*
X134485714Y-86849676D01*
X134485714Y-86849676D02*
X134485714Y-86963961D01*
X134485714Y-86963961D02*
X134447618Y-87040152D01*
X134447618Y-87040152D02*
X134409523Y-87078247D01*
X134409523Y-87078247D02*
X134333333Y-87116342D01*
X134333333Y-87116342D02*
X134028571Y-87116342D01*
X134980952Y-86697295D02*
X135057142Y-86697295D01*
X135057142Y-86697295D02*
X135133333Y-86735390D01*
X135133333Y-86735390D02*
X135171428Y-86773485D01*
X135171428Y-86773485D02*
X135209523Y-86849676D01*
X135209523Y-86849676D02*
X135247618Y-87002057D01*
X135247618Y-87002057D02*
X135247618Y-87192533D01*
X135247618Y-87192533D02*
X135209523Y-87344914D01*
X135209523Y-87344914D02*
X135171428Y-87421104D01*
X135171428Y-87421104D02*
X135133333Y-87459200D01*
X135133333Y-87459200D02*
X135057142Y-87497295D01*
X135057142Y-87497295D02*
X134980952Y-87497295D01*
X134980952Y-87497295D02*
X134904761Y-87459200D01*
X134904761Y-87459200D02*
X134866666Y-87421104D01*
X134866666Y-87421104D02*
X134828571Y-87344914D01*
X134828571Y-87344914D02*
X134790475Y-87192533D01*
X134790475Y-87192533D02*
X134790475Y-87002057D01*
X134790475Y-87002057D02*
X134828571Y-86849676D01*
X134828571Y-86849676D02*
X134866666Y-86773485D01*
X134866666Y-86773485D02*
X134904761Y-86735390D01*
X134904761Y-86735390D02*
X134980952Y-86697295D01*
X135971428Y-86697295D02*
X135590476Y-86697295D01*
X135590476Y-86697295D02*
X135552380Y-87078247D01*
X135552380Y-87078247D02*
X135590476Y-87040152D01*
X135590476Y-87040152D02*
X135666666Y-87002057D01*
X135666666Y-87002057D02*
X135857142Y-87002057D01*
X135857142Y-87002057D02*
X135933333Y-87040152D01*
X135933333Y-87040152D02*
X135971428Y-87078247D01*
X135971428Y-87078247D02*
X136009523Y-87154438D01*
X136009523Y-87154438D02*
X136009523Y-87344914D01*
X136009523Y-87344914D02*
X135971428Y-87421104D01*
X135971428Y-87421104D02*
X135933333Y-87459200D01*
X135933333Y-87459200D02*
X135857142Y-87497295D01*
X135857142Y-87497295D02*
X135666666Y-87497295D01*
X135666666Y-87497295D02*
X135590476Y-87459200D01*
X135590476Y-87459200D02*
X135552380Y-87421104D01*
D12*
%TO.C,D29*%
X244500000Y-78800000D02*
X244900000Y-78800000D01*
X244900000Y-78800000D02*
X244900000Y-78250000D01*
X244900000Y-78800000D02*
X244900000Y-79350000D01*
X244900000Y-78800000D02*
X245500000Y-78400000D01*
X245500000Y-78400000D02*
X245500000Y-79200000D01*
X245500000Y-78800000D02*
X246000000Y-78800000D01*
X245500000Y-79200000D02*
X244900000Y-78800000D01*
%TO.C,D26*%
X244500000Y-135950000D02*
X244900000Y-135950000D01*
X244900000Y-135950000D02*
X244900000Y-135400000D01*
X244900000Y-135950000D02*
X244900000Y-136500000D01*
X244900000Y-135950000D02*
X245500000Y-135550000D01*
X245500000Y-135550000D02*
X245500000Y-136350000D01*
X245500000Y-135950000D02*
X246000000Y-135950000D01*
X245500000Y-136350000D02*
X244900000Y-135950000D01*
%TO.C,D16*%
X206400000Y-155000000D02*
X206800000Y-155000000D01*
X206800000Y-155000000D02*
X206800000Y-154450000D01*
X206800000Y-155000000D02*
X206800000Y-155550000D01*
X206800000Y-155000000D02*
X207400000Y-154600000D01*
X207400000Y-154600000D02*
X207400000Y-155400000D01*
X207400000Y-155000000D02*
X207900000Y-155000000D01*
X207400000Y-155400000D02*
X206800000Y-155000000D01*
%TO.C,D11*%
X187350000Y-155000000D02*
X187750000Y-155000000D01*
X187750000Y-155000000D02*
X187750000Y-154450000D01*
X187750000Y-155000000D02*
X187750000Y-155550000D01*
X187750000Y-155000000D02*
X188350000Y-154600000D01*
X188350000Y-154600000D02*
X188350000Y-155400000D01*
X188350000Y-155000000D02*
X188850000Y-155000000D01*
X188350000Y-155400000D02*
X187750000Y-155000000D01*
%TO.C,D2*%
X149250000Y-135950000D02*
X149650000Y-135950000D01*
X149650000Y-135950000D02*
X149650000Y-135400000D01*
X149650000Y-135950000D02*
X149650000Y-136500000D01*
X149650000Y-135950000D02*
X150250000Y-135550000D01*
X150250000Y-135550000D02*
X150250000Y-136350000D01*
X150250000Y-135950000D02*
X150750000Y-135950000D01*
X150250000Y-136350000D02*
X149650000Y-135950000D01*
%TO.C,D7*%
X168300000Y-135950000D02*
X168700000Y-135950000D01*
X168700000Y-135950000D02*
X168700000Y-135400000D01*
X168700000Y-135950000D02*
X168700000Y-136500000D01*
X168700000Y-135950000D02*
X169300000Y-135550000D01*
X169300000Y-135550000D02*
X169300000Y-136350000D01*
X169300000Y-135950000D02*
X169800000Y-135950000D01*
X169300000Y-136350000D02*
X168700000Y-135950000D01*
%TO.C,D18*%
X206400000Y-116900000D02*
X206800000Y-116900000D01*
X206800000Y-116900000D02*
X206800000Y-116350000D01*
X206800000Y-116900000D02*
X206800000Y-117450000D01*
X206800000Y-116900000D02*
X207400000Y-116500000D01*
X207400000Y-116500000D02*
X207400000Y-117300000D01*
X207400000Y-116900000D02*
X207900000Y-116900000D01*
X207400000Y-117300000D02*
X206800000Y-116900000D01*
%TO.C,D21*%
X225450000Y-135950000D02*
X225850000Y-135950000D01*
X225850000Y-135950000D02*
X225850000Y-135400000D01*
X225850000Y-135950000D02*
X225850000Y-136500000D01*
X225850000Y-135950000D02*
X226450000Y-135550000D01*
X226450000Y-135550000D02*
X226450000Y-136350000D01*
X226450000Y-135950000D02*
X226950000Y-135950000D01*
X226450000Y-136350000D02*
X225850000Y-135950000D01*
%TO.C,D5*%
X149250000Y-78800000D02*
X149650000Y-78800000D01*
X149650000Y-78800000D02*
X149650000Y-78250000D01*
X149650000Y-78800000D02*
X149650000Y-79350000D01*
X149650000Y-78800000D02*
X150250000Y-78400000D01*
X150250000Y-78400000D02*
X150250000Y-79200000D01*
X150250000Y-78800000D02*
X150750000Y-78800000D01*
X150250000Y-79200000D02*
X149650000Y-78800000D01*
%TO.C,D10*%
X168300000Y-78800000D02*
X168700000Y-78800000D01*
X168700000Y-78800000D02*
X168700000Y-78250000D01*
X168700000Y-78800000D02*
X168700000Y-79350000D01*
X168700000Y-78800000D02*
X169300000Y-78400000D01*
X169300000Y-78400000D02*
X169300000Y-79200000D01*
X169300000Y-78800000D02*
X169800000Y-78800000D01*
X169300000Y-79200000D02*
X168700000Y-78800000D01*
%TO.C,D27*%
X244500000Y-116900000D02*
X244900000Y-116900000D01*
X244900000Y-116900000D02*
X244900000Y-116350000D01*
X244900000Y-116900000D02*
X244900000Y-117450000D01*
X244900000Y-116900000D02*
X245500000Y-116500000D01*
X245500000Y-116500000D02*
X245500000Y-117300000D01*
X245500000Y-116900000D02*
X246000000Y-116900000D01*
X245500000Y-117300000D02*
X244900000Y-116900000D01*
%TO.C,D13*%
X187350000Y-116900000D02*
X187750000Y-116900000D01*
X187750000Y-116900000D02*
X187750000Y-116350000D01*
X187750000Y-116900000D02*
X187750000Y-117450000D01*
X187750000Y-116900000D02*
X188350000Y-116500000D01*
X188350000Y-116500000D02*
X188350000Y-117300000D01*
X188350000Y-116900000D02*
X188850000Y-116900000D01*
X188350000Y-117300000D02*
X187750000Y-116900000D01*
%TO.C,D17*%
X206400000Y-135950000D02*
X206800000Y-135950000D01*
X206800000Y-135950000D02*
X206800000Y-135400000D01*
X206800000Y-135950000D02*
X206800000Y-136500000D01*
X206800000Y-135950000D02*
X207400000Y-135550000D01*
X207400000Y-135550000D02*
X207400000Y-136350000D01*
X207400000Y-135950000D02*
X207900000Y-135950000D01*
X207400000Y-136350000D02*
X206800000Y-135950000D01*
%TO.C,D20*%
X206400000Y-78800000D02*
X206800000Y-78800000D01*
X206800000Y-78800000D02*
X206800000Y-78250000D01*
X206800000Y-78800000D02*
X206800000Y-79350000D01*
X206800000Y-78800000D02*
X207400000Y-78400000D01*
X207400000Y-78400000D02*
X207400000Y-79200000D01*
X207400000Y-78800000D02*
X207900000Y-78800000D01*
X207400000Y-79200000D02*
X206800000Y-78800000D01*
%TO.C,D6*%
X168300000Y-155000000D02*
X168700000Y-155000000D01*
X168700000Y-155000000D02*
X168700000Y-154450000D01*
X168700000Y-155000000D02*
X168700000Y-155550000D01*
X168700000Y-155000000D02*
X169300000Y-154600000D01*
X169300000Y-154600000D02*
X169300000Y-155400000D01*
X169300000Y-155000000D02*
X169800000Y-155000000D01*
X169300000Y-155400000D02*
X168700000Y-155000000D01*
D11*
%TO.C,MCU1*%
X121310000Y-65545000D02*
X121310000Y-98565000D01*
X121310000Y-98565000D02*
X139090000Y-98565000D01*
X123850000Y-68085000D02*
X121310000Y-68085000D01*
X123850000Y-68085000D02*
X123850000Y-70625000D01*
X123850000Y-70625000D02*
X121310000Y-70625000D01*
X139090000Y-65545000D02*
X121310000Y-65545000D01*
X139090000Y-98565000D02*
X139090000Y-65545000D01*
D12*
%TO.C,D4*%
X149250000Y-97850000D02*
X149650000Y-97850000D01*
X149650000Y-97850000D02*
X149650000Y-97300000D01*
X149650000Y-97850000D02*
X149650000Y-98400000D01*
X149650000Y-97850000D02*
X150250000Y-97450000D01*
X150250000Y-97450000D02*
X150250000Y-98250000D01*
X150250000Y-97850000D02*
X150750000Y-97850000D01*
X150250000Y-98250000D02*
X149650000Y-97850000D01*
%TO.C,D14*%
X187350000Y-97850000D02*
X187750000Y-97850000D01*
X187750000Y-97850000D02*
X187750000Y-97300000D01*
X187750000Y-97850000D02*
X187750000Y-98400000D01*
X187750000Y-97850000D02*
X188350000Y-97450000D01*
X188350000Y-97450000D02*
X188350000Y-98250000D01*
X188350000Y-97850000D02*
X188850000Y-97850000D01*
X188350000Y-98250000D02*
X187750000Y-97850000D01*
%TO.C,D28*%
X244500000Y-97850000D02*
X244900000Y-97850000D01*
X244900000Y-97850000D02*
X244900000Y-97300000D01*
X244900000Y-97850000D02*
X244900000Y-98400000D01*
X244900000Y-97850000D02*
X245500000Y-97450000D01*
X245500000Y-97450000D02*
X245500000Y-98250000D01*
X245500000Y-97850000D02*
X246000000Y-97850000D01*
X245500000Y-98250000D02*
X244900000Y-97850000D01*
%TO.C,D19*%
X206400000Y-97850000D02*
X206800000Y-97850000D01*
X206800000Y-97850000D02*
X206800000Y-97300000D01*
X206800000Y-97850000D02*
X206800000Y-98400000D01*
X206800000Y-97850000D02*
X207400000Y-97450000D01*
X207400000Y-97450000D02*
X207400000Y-98250000D01*
X207400000Y-97850000D02*
X207900000Y-97850000D01*
X207400000Y-98250000D02*
X206800000Y-97850000D01*
%TO.C,D12*%
X187350000Y-135950000D02*
X187750000Y-135950000D01*
X187750000Y-135950000D02*
X187750000Y-135400000D01*
X187750000Y-135950000D02*
X187750000Y-136500000D01*
X187750000Y-135950000D02*
X188350000Y-135550000D01*
X188350000Y-135550000D02*
X188350000Y-136350000D01*
X188350000Y-135950000D02*
X188850000Y-135950000D01*
X188350000Y-136350000D02*
X187750000Y-135950000D01*
%TO.C,D9*%
X168300000Y-97850000D02*
X168700000Y-97850000D01*
X168700000Y-97850000D02*
X168700000Y-97300000D01*
X168700000Y-97850000D02*
X168700000Y-98400000D01*
X168700000Y-97850000D02*
X169300000Y-97450000D01*
X169300000Y-97450000D02*
X169300000Y-98250000D01*
X169300000Y-97850000D02*
X169800000Y-97850000D01*
X169300000Y-98250000D02*
X168700000Y-97850000D01*
%TO.C,D3*%
X149250000Y-116900000D02*
X149650000Y-116900000D01*
X149650000Y-116900000D02*
X149650000Y-116350000D01*
X149650000Y-116900000D02*
X149650000Y-117450000D01*
X149650000Y-116900000D02*
X150250000Y-116500000D01*
X150250000Y-116500000D02*
X150250000Y-117300000D01*
X150250000Y-116900000D02*
X150750000Y-116900000D01*
X150250000Y-117300000D02*
X149650000Y-116900000D01*
%TO.C,D22*%
X225450000Y-116900000D02*
X225850000Y-116900000D01*
X225850000Y-116900000D02*
X225850000Y-116350000D01*
X225850000Y-116900000D02*
X225850000Y-117450000D01*
X225850000Y-116900000D02*
X226450000Y-116500000D01*
X226450000Y-116500000D02*
X226450000Y-117300000D01*
X226450000Y-116900000D02*
X226950000Y-116900000D01*
X226450000Y-117300000D02*
X225850000Y-116900000D01*
%TO.C,D8*%
X168300000Y-116900000D02*
X168700000Y-116900000D01*
X168700000Y-116900000D02*
X168700000Y-116350000D01*
X168700000Y-116900000D02*
X168700000Y-117450000D01*
X168700000Y-116900000D02*
X169300000Y-116500000D01*
X169300000Y-116500000D02*
X169300000Y-117300000D01*
X169300000Y-116900000D02*
X169800000Y-116900000D01*
X169300000Y-117300000D02*
X168700000Y-116900000D01*
%TO.C,D23*%
X225450000Y-97850000D02*
X225850000Y-97850000D01*
X225850000Y-97850000D02*
X225850000Y-97300000D01*
X225850000Y-97850000D02*
X225850000Y-98400000D01*
X225850000Y-97850000D02*
X226450000Y-97450000D01*
X226450000Y-97450000D02*
X226450000Y-98250000D01*
X226450000Y-97850000D02*
X226950000Y-97850000D01*
X226450000Y-98250000D02*
X225850000Y-97850000D01*
%TO.C,D15*%
X187350000Y-78800000D02*
X187750000Y-78800000D01*
X187750000Y-78800000D02*
X187750000Y-78250000D01*
X187750000Y-78800000D02*
X187750000Y-79350000D01*
X187750000Y-78800000D02*
X188350000Y-78400000D01*
X188350000Y-78400000D02*
X188350000Y-79200000D01*
X188350000Y-78800000D02*
X188850000Y-78800000D01*
X188350000Y-79200000D02*
X187750000Y-78800000D01*
%TO.C,D1*%
X149250000Y-155000000D02*
X149650000Y-155000000D01*
X149650000Y-155000000D02*
X149650000Y-154450000D01*
X149650000Y-155000000D02*
X149650000Y-155550000D01*
X149650000Y-155000000D02*
X150250000Y-154600000D01*
X150250000Y-154600000D02*
X150250000Y-155400000D01*
X150250000Y-155000000D02*
X150750000Y-155000000D01*
X150250000Y-155400000D02*
X149650000Y-155000000D01*
%TO.C,D24*%
X225450000Y-78800000D02*
X225850000Y-78800000D01*
X225850000Y-78800000D02*
X225850000Y-78250000D01*
X225850000Y-78800000D02*
X225850000Y-79350000D01*
X225850000Y-78800000D02*
X226450000Y-78400000D01*
X226450000Y-78400000D02*
X226450000Y-79200000D01*
X226450000Y-78800000D02*
X226950000Y-78800000D01*
X226450000Y-79200000D02*
X225850000Y-78800000D01*
%TO.C,D25*%
X234975000Y-155000000D02*
X235375000Y-155000000D01*
X235375000Y-155000000D02*
X235375000Y-154450000D01*
X235375000Y-155000000D02*
X235375000Y-155550000D01*
X235375000Y-155000000D02*
X235975000Y-154600000D01*
X235975000Y-154600000D02*
X235975000Y-155400000D01*
X235975000Y-155000000D02*
X236475000Y-155000000D01*
X235975000Y-155400000D02*
X235375000Y-155000000D01*
%TD*%
D13*
%TO.C,MCU1*%
X122580000Y-69355000D03*
D14*
X122580000Y-71895000D03*
X122580000Y-74435000D03*
X122580000Y-76975000D03*
X122580000Y-79515000D03*
X122580000Y-82055000D03*
X122580000Y-84595000D03*
X122580000Y-87135000D03*
X122580000Y-89675000D03*
X122580000Y-92215000D03*
X122580000Y-94755000D03*
X122580000Y-97295000D03*
X137820000Y-69355000D03*
X137820000Y-71895000D03*
X137820000Y-74435000D03*
X137820000Y-76975000D03*
X137820000Y-79515000D03*
X137820000Y-82055000D03*
X137820000Y-84595000D03*
X137820000Y-87135000D03*
X137820000Y-89675000D03*
X137820000Y-92215000D03*
X137820000Y-94755000D03*
X137820000Y-97295000D03*
%TD*%
%LPC*%
D15*
%TO.C,D29*%
X241440000Y-78800000D03*
D16*
X243600000Y-78800000D03*
X246900000Y-78800000D03*
D17*
X249060000Y-78800000D03*
%TD*%
D15*
%TO.C,D26*%
X241440000Y-135950000D03*
D16*
X243600000Y-135950000D03*
X246900000Y-135950000D03*
D17*
X249060000Y-135950000D03*
%TD*%
D18*
%TO.C,S3*%
X144920000Y-111900000D03*
D19*
X150000000Y-111900000D03*
D18*
X155080000Y-111900000D03*
D20*
X152540000Y-106820000D03*
X146190000Y-109360000D03*
%TD*%
D18*
%TO.C,S25*%
X230645000Y-150000000D03*
D19*
X235725000Y-150000000D03*
D18*
X240805000Y-150000000D03*
D20*
X238265000Y-144920000D03*
X231915000Y-147460000D03*
%TD*%
D18*
%TO.C,S4*%
X144920000Y-92850000D03*
D19*
X150000000Y-92850000D03*
D18*
X155080000Y-92850000D03*
D20*
X152540000Y-87770000D03*
X146190000Y-90310000D03*
%TD*%
D18*
%TO.C,S20*%
X202070000Y-73800000D03*
D19*
X207150000Y-73800000D03*
D18*
X212230000Y-73800000D03*
D20*
X209690000Y-68720000D03*
X203340000Y-71260000D03*
%TD*%
D18*
%TO.C,S16*%
X202070000Y-150000000D03*
D19*
X207150000Y-150000000D03*
D18*
X212230000Y-150000000D03*
D20*
X209690000Y-144920000D03*
X203340000Y-147460000D03*
%TD*%
D15*
%TO.C,D16*%
X203340000Y-155000000D03*
D16*
X205500000Y-155000000D03*
X208800000Y-155000000D03*
D17*
X210960000Y-155000000D03*
%TD*%
D18*
%TO.C,S22*%
X221120000Y-111900000D03*
D19*
X226200000Y-111900000D03*
D18*
X231280000Y-111900000D03*
D20*
X228740000Y-106820000D03*
X222390000Y-109360000D03*
%TD*%
D15*
%TO.C,D11*%
X184290000Y-155000000D03*
D16*
X186450000Y-155000000D03*
X189750000Y-155000000D03*
D17*
X191910000Y-155000000D03*
%TD*%
D15*
%TO.C,D2*%
X146190000Y-135950000D03*
D16*
X148350000Y-135950000D03*
X151650000Y-135950000D03*
D17*
X153810000Y-135950000D03*
%TD*%
D15*
%TO.C,D7*%
X165240000Y-135950000D03*
D16*
X167400000Y-135950000D03*
X170700000Y-135950000D03*
D17*
X172860000Y-135950000D03*
%TD*%
D18*
%TO.C,S24*%
X221120000Y-73800000D03*
D19*
X226200000Y-73800000D03*
D18*
X231280000Y-73800000D03*
D20*
X228740000Y-68720000D03*
X222390000Y-71260000D03*
%TD*%
D18*
%TO.C,S18*%
X202070000Y-111900000D03*
D19*
X207150000Y-111900000D03*
D18*
X212230000Y-111900000D03*
D20*
X209690000Y-106820000D03*
X203340000Y-109360000D03*
%TD*%
D15*
%TO.C,D18*%
X203340000Y-116900000D03*
D16*
X205500000Y-116900000D03*
X208800000Y-116900000D03*
D17*
X210960000Y-116900000D03*
%TD*%
D18*
%TO.C,S10*%
X163970000Y-73800000D03*
D19*
X169050000Y-73800000D03*
D18*
X174130000Y-73800000D03*
D20*
X171590000Y-68720000D03*
X165240000Y-71260000D03*
%TD*%
D18*
%TO.C,S7*%
X163970000Y-130950000D03*
D19*
X169050000Y-130950000D03*
D18*
X174130000Y-130950000D03*
D20*
X171590000Y-125870000D03*
X165240000Y-128410000D03*
%TD*%
D15*
%TO.C,D21*%
X222390000Y-135950000D03*
D16*
X224550000Y-135950000D03*
X227850000Y-135950000D03*
D17*
X230010000Y-135950000D03*
%TD*%
D15*
%TO.C,D5*%
X146190000Y-78800000D03*
D16*
X148350000Y-78800000D03*
X151650000Y-78800000D03*
D17*
X153810000Y-78800000D03*
%TD*%
D15*
%TO.C,D10*%
X165240000Y-78800000D03*
D16*
X167400000Y-78800000D03*
X170700000Y-78800000D03*
D17*
X172860000Y-78800000D03*
%TD*%
D18*
%TO.C,S2*%
X144920000Y-130950000D03*
D19*
X150000000Y-130950000D03*
D18*
X155080000Y-130950000D03*
D20*
X152540000Y-125870000D03*
X146190000Y-128410000D03*
%TD*%
D15*
%TO.C,D27*%
X241440000Y-116900000D03*
D16*
X243600000Y-116900000D03*
X246900000Y-116900000D03*
D17*
X249060000Y-116900000D03*
%TD*%
D18*
%TO.C,S13*%
X183020000Y-111900000D03*
D19*
X188100000Y-111900000D03*
D18*
X193180000Y-111900000D03*
D20*
X190640000Y-106820000D03*
X184290000Y-109360000D03*
%TD*%
D18*
%TO.C,S17*%
X202070000Y-130950000D03*
D19*
X207150000Y-130950000D03*
D18*
X212230000Y-130950000D03*
D20*
X209690000Y-125870000D03*
X203340000Y-128410000D03*
%TD*%
D15*
%TO.C,D13*%
X184290000Y-116900000D03*
D16*
X186450000Y-116900000D03*
X189750000Y-116900000D03*
D17*
X191910000Y-116900000D03*
%TD*%
D18*
%TO.C,S1*%
X144920000Y-150000000D03*
D19*
X150000000Y-150000000D03*
D18*
X155080000Y-150000000D03*
D20*
X152540000Y-144920000D03*
X146190000Y-147460000D03*
%TD*%
D18*
%TO.C,S5*%
X144920000Y-73800000D03*
D19*
X150000000Y-73800000D03*
D18*
X155080000Y-73800000D03*
D20*
X152540000Y-68720000D03*
X146190000Y-71260000D03*
%TD*%
D18*
%TO.C,S27*%
X240170000Y-111900000D03*
D19*
X245250000Y-111900000D03*
D18*
X250330000Y-111900000D03*
D20*
X247790000Y-106820000D03*
X241440000Y-109360000D03*
%TD*%
D15*
%TO.C,D17*%
X203340000Y-135950000D03*
D16*
X205500000Y-135950000D03*
X208800000Y-135950000D03*
D17*
X210960000Y-135950000D03*
%TD*%
D18*
%TO.C,S23*%
X221120000Y-92850000D03*
D19*
X226200000Y-92850000D03*
D18*
X231280000Y-92850000D03*
D20*
X228740000Y-87770000D03*
X222390000Y-90310000D03*
%TD*%
D18*
%TO.C,S28*%
X240170000Y-92850000D03*
D19*
X245250000Y-92850000D03*
D18*
X250330000Y-92850000D03*
D20*
X247790000Y-87770000D03*
X241440000Y-90310000D03*
%TD*%
D18*
%TO.C,S9*%
X163970000Y-92850000D03*
D19*
X169050000Y-92850000D03*
D18*
X174130000Y-92850000D03*
D20*
X171590000Y-87770000D03*
X165240000Y-90310000D03*
%TD*%
D18*
%TO.C,S8*%
X163970000Y-111900000D03*
D19*
X169050000Y-111900000D03*
D18*
X174130000Y-111900000D03*
D20*
X171590000Y-106820000D03*
X165240000Y-109360000D03*
%TD*%
D15*
%TO.C,D20*%
X203340000Y-78800000D03*
D16*
X205500000Y-78800000D03*
X208800000Y-78800000D03*
D17*
X210960000Y-78800000D03*
%TD*%
D18*
%TO.C,S29*%
X240170000Y-73800000D03*
D19*
X245250000Y-73800000D03*
D18*
X250330000Y-73800000D03*
D20*
X247790000Y-68720000D03*
X241440000Y-71260000D03*
%TD*%
D15*
%TO.C,D6*%
X165240000Y-155000000D03*
D16*
X167400000Y-155000000D03*
X170700000Y-155000000D03*
D17*
X172860000Y-155000000D03*
%TD*%
D21*
%TO.C,MCU1*%
X122580000Y-69355000D03*
D22*
X122580000Y-71895000D03*
X122580000Y-74435000D03*
X122580000Y-76975000D03*
X122580000Y-79515000D03*
X122580000Y-82055000D03*
X122580000Y-84595000D03*
X122580000Y-87135000D03*
X122580000Y-89675000D03*
X122580000Y-92215000D03*
X122580000Y-94755000D03*
X122580000Y-97295000D03*
X137820000Y-69355000D03*
X137820000Y-71895000D03*
X137820000Y-74435000D03*
X137820000Y-76975000D03*
X137820000Y-79515000D03*
X137820000Y-82055000D03*
X137820000Y-84595000D03*
X137820000Y-87135000D03*
X137820000Y-89675000D03*
X137820000Y-92215000D03*
X137820000Y-94755000D03*
X137820000Y-97295000D03*
%TD*%
D18*
%TO.C,S11*%
X183020000Y-150000000D03*
D19*
X188100000Y-150000000D03*
D18*
X193180000Y-150000000D03*
D20*
X190640000Y-144920000D03*
X184290000Y-147460000D03*
%TD*%
D15*
%TO.C,D4*%
X146190000Y-97850000D03*
D16*
X148350000Y-97850000D03*
X151650000Y-97850000D03*
D17*
X153810000Y-97850000D03*
%TD*%
D15*
%TO.C,D14*%
X184290000Y-97850000D03*
D16*
X186450000Y-97850000D03*
X189750000Y-97850000D03*
D17*
X191910000Y-97850000D03*
%TD*%
D15*
%TO.C,D28*%
X241440000Y-97850000D03*
D16*
X243600000Y-97850000D03*
X246900000Y-97850000D03*
D17*
X249060000Y-97850000D03*
%TD*%
D15*
%TO.C,D19*%
X203340000Y-97850000D03*
D16*
X205500000Y-97850000D03*
X208800000Y-97850000D03*
D17*
X210960000Y-97850000D03*
%TD*%
D15*
%TO.C,D12*%
X184290000Y-135950000D03*
D16*
X186450000Y-135950000D03*
X189750000Y-135950000D03*
D17*
X191910000Y-135950000D03*
%TD*%
D15*
%TO.C,D9*%
X165240000Y-97850000D03*
D16*
X167400000Y-97850000D03*
X170700000Y-97850000D03*
D17*
X172860000Y-97850000D03*
%TD*%
D15*
%TO.C,D3*%
X146190000Y-116900000D03*
D16*
X148350000Y-116900000D03*
X151650000Y-116900000D03*
D17*
X153810000Y-116900000D03*
%TD*%
D18*
%TO.C,S6*%
X163970000Y-150000000D03*
D19*
X169050000Y-150000000D03*
D18*
X174130000Y-150000000D03*
D20*
X171590000Y-144920000D03*
X165240000Y-147460000D03*
%TD*%
D18*
%TO.C,S12*%
X183020000Y-130950000D03*
D19*
X188100000Y-130950000D03*
D18*
X193180000Y-130950000D03*
D20*
X190640000Y-125870000D03*
X184290000Y-128410000D03*
%TD*%
D15*
%TO.C,D22*%
X222390000Y-116900000D03*
D16*
X224550000Y-116900000D03*
X227850000Y-116900000D03*
D17*
X230010000Y-116900000D03*
%TD*%
D15*
%TO.C,D8*%
X165240000Y-116900000D03*
D16*
X167400000Y-116900000D03*
X170700000Y-116900000D03*
D17*
X172860000Y-116900000D03*
%TD*%
D15*
%TO.C,D23*%
X222390000Y-97850000D03*
D16*
X224550000Y-97850000D03*
X227850000Y-97850000D03*
D17*
X230010000Y-97850000D03*
%TD*%
D18*
%TO.C,S15*%
X183020000Y-73800000D03*
D19*
X188100000Y-73800000D03*
D18*
X193180000Y-73800000D03*
D20*
X190640000Y-68720000D03*
X184290000Y-71260000D03*
%TD*%
D18*
%TO.C,S14*%
X183020000Y-92850000D03*
D19*
X188100000Y-92850000D03*
D18*
X193180000Y-92850000D03*
D20*
X190640000Y-87770000D03*
X184290000Y-90310000D03*
%TD*%
D18*
%TO.C,S21*%
X221120000Y-130950000D03*
D19*
X226200000Y-130950000D03*
D18*
X231280000Y-130950000D03*
D20*
X228740000Y-125870000D03*
X222390000Y-128410000D03*
%TD*%
D15*
%TO.C,D15*%
X184290000Y-78800000D03*
D16*
X186450000Y-78800000D03*
X189750000Y-78800000D03*
D17*
X191910000Y-78800000D03*
%TD*%
D15*
%TO.C,D1*%
X146190000Y-155000000D03*
D16*
X148350000Y-155000000D03*
X151650000Y-155000000D03*
D17*
X153810000Y-155000000D03*
%TD*%
D18*
%TO.C,S26*%
X240170000Y-130950000D03*
D19*
X245250000Y-130950000D03*
D18*
X250330000Y-130950000D03*
D20*
X247790000Y-125870000D03*
X241440000Y-128410000D03*
%TD*%
D15*
%TO.C,D24*%
X222390000Y-78800000D03*
D16*
X224550000Y-78800000D03*
X227850000Y-78800000D03*
D17*
X230010000Y-78800000D03*
%TD*%
D18*
%TO.C,S19*%
X202070000Y-92850000D03*
D19*
X207150000Y-92850000D03*
D18*
X212230000Y-92850000D03*
D20*
X209690000Y-87770000D03*
X203340000Y-90310000D03*
%TD*%
D15*
%TO.C,D25*%
X231915000Y-155000000D03*
D16*
X234075000Y-155000000D03*
X237375000Y-155000000D03*
D17*
X239535000Y-155000000D03*
%TD*%
%LPD*%
M02*
