M48
; DRILL file {KiCad 9.0.4} date 2025-09-30T19:50:03-0500
; FORMAT={-:-/ absolute / metric / decimal}
; #@! TF.CreationDate,2025-09-30T19:50:03-05:00
; #@! TF.GenerationSoftware,Kicad,Pcbnew,9.0.4
; #@! TF.FileFunction,Plated,1,2,PTH
FMAT,2
METRIC
; #@! TA.AperFunction,Plated,PTH,ComponentDrill
T1C0.991
; #@! TA.AperFunction,Plated,PTH,ComponentDrill
T2C1.092
; #@! TA.AperFunction,Plated,PTH,ComponentDrill
T3C1.499
%
G90
G05
T1
X146.19Y-78.8
X146.19Y-97.85
X146.19Y-116.9
X146.19Y-135.95
X146.19Y-155.0
X153.81Y-78.8
X153.81Y-97.85
X153.81Y-116.9
X153.81Y-135.95
X153.81Y-155.0
X165.24Y-78.8
X165.24Y-97.85
X165.24Y-116.9
X165.24Y-135.95
X165.24Y-155.0
X172.86Y-78.8
X172.86Y-97.85
X172.86Y-116.9
X172.86Y-135.95
X172.86Y-155.0
X184.29Y-78.8
X184.29Y-97.85
X184.29Y-116.9
X184.29Y-135.95
X184.29Y-155.0
X191.91Y-78.8
X191.91Y-97.85
X191.91Y-116.9
X191.91Y-135.95
X191.91Y-155.0
X203.34Y-78.8
X203.34Y-97.85
X203.34Y-116.9
X203.34Y-135.95
X203.34Y-155.0
X210.96Y-78.8
X210.96Y-97.85
X210.96Y-116.9
X210.96Y-135.95
X210.96Y-155.0
X222.39Y-78.8
X222.39Y-97.85
X222.39Y-116.9
X222.39Y-135.95
X230.01Y-78.8
X230.01Y-97.85
X230.01Y-116.9
X230.01Y-135.95
X231.915Y-155.0
X239.535Y-155.0
X241.44Y-78.8
X241.44Y-97.85
X241.44Y-116.9
X241.44Y-135.95
X249.06Y-78.8
X249.06Y-97.85
X249.06Y-116.9
X249.06Y-135.95
T2
X122.58Y-69.355
X122.58Y-71.895
X122.58Y-74.435
X122.58Y-76.975
X122.58Y-79.515
X122.58Y-82.055
X122.58Y-84.595
X122.58Y-87.135
X122.58Y-89.675
X122.58Y-92.215
X122.58Y-94.755
X122.58Y-97.295
X137.82Y-69.355
X137.82Y-71.895
X137.82Y-74.435
X137.82Y-76.975
X137.82Y-79.515
X137.82Y-82.055
X137.82Y-84.595
X137.82Y-87.135
X137.82Y-89.675
X137.82Y-92.215
X137.82Y-94.755
X137.82Y-97.295
T3
X146.19Y-71.26
X146.19Y-90.31
X146.19Y-109.36
X146.19Y-128.41
X146.19Y-147.46
X152.54Y-68.72
X152.54Y-87.77
X152.54Y-106.82
X152.54Y-125.87
X152.54Y-144.92
X165.24Y-71.26
X165.24Y-90.31
X165.24Y-109.36
X165.24Y-128.41
X165.24Y-147.46
X171.59Y-68.72
X171.59Y-87.77
X171.59Y-106.82
X171.59Y-125.87
X171.59Y-144.92
X184.29Y-71.26
X184.29Y-90.31
X184.29Y-109.36
X184.29Y-128.41
X184.29Y-147.46
X190.64Y-68.72
X190.64Y-87.77
X190.64Y-106.82
X190.64Y-125.87
X190.64Y-144.92
X203.34Y-71.26
X203.34Y-90.31
X203.34Y-109.36
X203.34Y-128.41
X203.34Y-147.46
X209.69Y-68.72
X209.69Y-87.77
X209.69Y-106.82
X209.69Y-125.87
X209.69Y-144.92
X222.39Y-71.26
X222.39Y-90.31
X222.39Y-109.36
X222.39Y-128.41
X228.74Y-68.72
X228.74Y-87.77
X228.74Y-106.82
X228.74Y-125.87
X231.915Y-147.46
X238.265Y-144.92
X241.44Y-71.26
X241.44Y-90.31
X241.44Y-109.36
X241.44Y-128.41
X247.79Y-68.72
X247.79Y-87.77
X247.79Y-106.82
X247.79Y-125.87
M30
