M48
; DRILL file {KiCad 9.0.4} date 2025-09-30T19:50:03-0500
; FORMAT={-:-/ absolute / metric / decimal}
; #@! TF.CreationDate,2025-09-30T19:50:03-05:00
; #@! TF.GenerationSoftware,Kicad,Pcbnew,9.0.4
; #@! TF.FileFunction,NonPlated,1,2,NPTH
FMAT,2
METRIC
; #@! TA.AperFunction,NonPlated,NPTH,ComponentDrill
T1C1.702
; #@! TA.AperFunction,NonPlated,NPTH,ComponentDrill
T2C3.988
%
G90
G05
T1
X144.92Y-73.8
X144.92Y-92.85
X144.92Y-111.9
X144.92Y-130.95
X144.92Y-150.0
X155.08Y-73.8
X155.08Y-92.85
X155.08Y-111.9
X155.08Y-130.95
X155.08Y-150.0
X163.97Y-73.8
X163.97Y-92.85
X163.97Y-111.9
X163.97Y-130.95
X163.97Y-150.0
X174.13Y-73.8
X174.13Y-92.85
X174.13Y-111.9
X174.13Y-130.95
X174.13Y-150.0
X183.02Y-73.8
X183.02Y-92.85
X183.02Y-111.9
X183.02Y-130.95
X183.02Y-150.0
X193.18Y-73.8
X193.18Y-92.85
X193.18Y-111.9
X193.18Y-130.95
X193.18Y-150.0
X202.07Y-73.8
X202.07Y-92.85
X202.07Y-111.9
X202.07Y-130.95
X202.07Y-150.0
X212.23Y-73.8
X212.23Y-92.85
X212.23Y-111.9
X212.23Y-130.95
X212.23Y-150.0
X221.12Y-73.8
X221.12Y-92.85
X221.12Y-111.9
X221.12Y-130.95
X230.645Y-150.0
X231.28Y-73.8
X231.28Y-92.85
X231.28Y-111.9
X231.28Y-130.95
X240.17Y-73.8
X240.17Y-92.85
X240.17Y-111.9
X240.17Y-130.95
X240.805Y-150.0
X250.33Y-73.8
X250.33Y-92.85
X250.33Y-111.9
X250.33Y-130.95
T2
X150.0Y-73.8
X150.0Y-92.85
X150.0Y-111.9
X150.0Y-130.95
X150.0Y-150.0
X169.05Y-73.8
X169.05Y-92.85
X169.05Y-111.9
X169.05Y-130.95
X169.05Y-150.0
X188.1Y-73.8
X188.1Y-92.85
X188.1Y-111.9
X188.1Y-130.95
X188.1Y-150.0
X207.15Y-73.8
X207.15Y-92.85
X207.15Y-111.9
X207.15Y-130.95
X207.15Y-150.0
X226.2Y-73.8
X226.2Y-92.85
X226.2Y-111.9
X226.2Y-130.95
X235.725Y-150.0
X245.25Y-73.8
X245.25Y-92.85
X245.25Y-111.9
X245.25Y-130.95
M30
