%TF.GenerationSoftware,KiCad,Pcbnew,9.0.4*%
%TF.CreationDate,2025-09-30T19:49:13-05:00*%
%TF.ProjectId,keyboard,6b657962-6f61-4726-942e-6b696361645f,v1.0.0*%
%TF.SameCoordinates,Original*%
%TF.FileFunction,Copper,L2,Bot*%
%TF.FilePolarity,Positive*%
%FSLAX46Y46*%
G04 Gerber Fmt 4.6, Leading zero omitted, Abs format (unit mm)*
G04 Created by KiCad (PCBNEW 9.0.4) date 2025-09-30 19:49:13*
%MOMM*%
%LPD*%
G01*
G04 APERTURE LIST*
%TA.AperFunction,ComponentPad*%
%ADD10R,1.778000X1.778000*%
%TD*%
%TA.AperFunction,SMDPad,CuDef*%
%ADD11R,0.900000X1.200000*%
%TD*%
%TA.AperFunction,ComponentPad*%
%ADD12C,1.905000*%
%TD*%
%TA.AperFunction,ComponentPad*%
%ADD13C,2.286000*%
%TD*%
%TA.AperFunction,ComponentPad*%
%ADD14R,1.752600X1.752600*%
%TD*%
%TA.AperFunction,ComponentPad*%
%ADD15C,1.752600*%
%TD*%
%TA.AperFunction,Conductor*%
%ADD16C,0.250000*%
%TD*%
G04 APERTURE END LIST*
D10*
%TO.P,D29,1*%
%TO.N,P18*%
X241440000Y-78800000D03*
D11*
X243600000Y-78800000D03*
%TO.P,D29,2*%
%TO.N,inner_num*%
X246900000Y-78800000D03*
D12*
X249060000Y-78800000D03*
%TD*%
D10*
%TO.P,D26,1*%
%TO.N,P16*%
X241440000Y-135950000D03*
D11*
X243600000Y-135950000D03*
%TO.P,D26,2*%
%TO.N,inner_bottom*%
X246900000Y-135950000D03*
D12*
X249060000Y-135950000D03*
%TD*%
D13*
%TO.P,S3,1*%
%TO.N,P9*%
X152540000Y-106820000D03*
%TO.P,S3,2*%
%TO.N,outer_home*%
X146190000Y-109360000D03*
%TD*%
%TO.P,S25,1*%
%TO.N,P4*%
X238265000Y-144920000D03*
%TO.P,S25,2*%
%TO.N,inner_mod*%
X231915000Y-147460000D03*
%TD*%
%TO.P,S4,1*%
%TO.N,P9*%
X152540000Y-87770000D03*
%TO.P,S4,2*%
%TO.N,outer_top*%
X146190000Y-90310000D03*
%TD*%
%TO.P,S20,1*%
%TO.N,P6*%
X209690000Y-68720000D03*
%TO.P,S20,2*%
%TO.N,middle_num*%
X203340000Y-71260000D03*
%TD*%
%TO.P,S16,1*%
%TO.N,P6*%
X209690000Y-144920000D03*
%TO.P,S16,2*%
%TO.N,middle_mod*%
X203340000Y-147460000D03*
%TD*%
D10*
%TO.P,D16,1*%
%TO.N,P10*%
X203340000Y-155000000D03*
D11*
X205500000Y-155000000D03*
%TO.P,D16,2*%
%TO.N,middle_mod*%
X208800000Y-155000000D03*
D12*
X210960000Y-155000000D03*
%TD*%
D13*
%TO.P,S22,1*%
%TO.N,P5*%
X228740000Y-106820000D03*
%TO.P,S22,2*%
%TO.N,index_home*%
X222390000Y-109360000D03*
%TD*%
D10*
%TO.P,D11,1*%
%TO.N,P10*%
X184290000Y-155000000D03*
D11*
X186450000Y-155000000D03*
%TO.P,D11,2*%
%TO.N,ring_mod*%
X189750000Y-155000000D03*
D12*
X191910000Y-155000000D03*
%TD*%
D10*
%TO.P,D2,1*%
%TO.N,P16*%
X146190000Y-135950000D03*
D11*
X148350000Y-135950000D03*
%TO.P,D2,2*%
%TO.N,outer_bottom*%
X151650000Y-135950000D03*
D12*
X153810000Y-135950000D03*
%TD*%
D10*
%TO.P,D7,1*%
%TO.N,P16*%
X165240000Y-135950000D03*
D11*
X167400000Y-135950000D03*
%TO.P,D7,2*%
%TO.N,pinky_bottom*%
X170700000Y-135950000D03*
D12*
X172860000Y-135950000D03*
%TD*%
D13*
%TO.P,S24,1*%
%TO.N,P5*%
X228740000Y-68720000D03*
%TO.P,S24,2*%
%TO.N,index_num*%
X222390000Y-71260000D03*
%TD*%
%TO.P,S18,1*%
%TO.N,P6*%
X209690000Y-106820000D03*
%TO.P,S18,2*%
%TO.N,middle_home*%
X203340000Y-109360000D03*
%TD*%
D10*
%TO.P,D18,1*%
%TO.N,P14*%
X203340000Y-116900000D03*
D11*
X205500000Y-116900000D03*
%TO.P,D18,2*%
%TO.N,middle_home*%
X208800000Y-116900000D03*
D12*
X210960000Y-116900000D03*
%TD*%
D13*
%TO.P,S10,1*%
%TO.N,P8*%
X171590000Y-68720000D03*
%TO.P,S10,2*%
%TO.N,pinky_num*%
X165240000Y-71260000D03*
%TD*%
%TO.P,S7,1*%
%TO.N,P8*%
X171590000Y-125870000D03*
%TO.P,S7,2*%
%TO.N,pinky_bottom*%
X165240000Y-128410000D03*
%TD*%
D10*
%TO.P,D21,1*%
%TO.N,P16*%
X222390000Y-135950000D03*
D11*
X224550000Y-135950000D03*
%TO.P,D21,2*%
%TO.N,index_bottom*%
X227850000Y-135950000D03*
D12*
X230010000Y-135950000D03*
%TD*%
D10*
%TO.P,D5,1*%
%TO.N,P18*%
X146190000Y-78800000D03*
D11*
X148350000Y-78800000D03*
%TO.P,D5,2*%
%TO.N,outer_num*%
X151650000Y-78800000D03*
D12*
X153810000Y-78800000D03*
%TD*%
D10*
%TO.P,D10,1*%
%TO.N,P18*%
X165240000Y-78800000D03*
D11*
X167400000Y-78800000D03*
%TO.P,D10,2*%
%TO.N,pinky_num*%
X170700000Y-78800000D03*
D12*
X172860000Y-78800000D03*
%TD*%
D13*
%TO.P,S2,1*%
%TO.N,P9*%
X152540000Y-125870000D03*
%TO.P,S2,2*%
%TO.N,outer_bottom*%
X146190000Y-128410000D03*
%TD*%
D10*
%TO.P,D27,1*%
%TO.N,P14*%
X241440000Y-116900000D03*
D11*
X243600000Y-116900000D03*
%TO.P,D27,2*%
%TO.N,inner_home*%
X246900000Y-116900000D03*
D12*
X249060000Y-116900000D03*
%TD*%
D13*
%TO.P,S13,1*%
%TO.N,P7*%
X190640000Y-106820000D03*
%TO.P,S13,2*%
%TO.N,ring_home*%
X184290000Y-109360000D03*
%TD*%
%TO.P,S17,1*%
%TO.N,P6*%
X209690000Y-125870000D03*
%TO.P,S17,2*%
%TO.N,middle_bottom*%
X203340000Y-128410000D03*
%TD*%
D10*
%TO.P,D13,1*%
%TO.N,P14*%
X184290000Y-116900000D03*
D11*
X186450000Y-116900000D03*
%TO.P,D13,2*%
%TO.N,ring_home*%
X189750000Y-116900000D03*
D12*
X191910000Y-116900000D03*
%TD*%
D13*
%TO.P,S1,1*%
%TO.N,P9*%
X152540000Y-144920000D03*
%TO.P,S1,2*%
%TO.N,outer_mod*%
X146190000Y-147460000D03*
%TD*%
%TO.P,S5,1*%
%TO.N,P9*%
X152540000Y-68720000D03*
%TO.P,S5,2*%
%TO.N,outer_num*%
X146190000Y-71260000D03*
%TD*%
%TO.P,S27,1*%
%TO.N,P4*%
X247790000Y-106820000D03*
%TO.P,S27,2*%
%TO.N,inner_home*%
X241440000Y-109360000D03*
%TD*%
D10*
%TO.P,D17,1*%
%TO.N,P16*%
X203340000Y-135950000D03*
D11*
X205500000Y-135950000D03*
%TO.P,D17,2*%
%TO.N,middle_bottom*%
X208800000Y-135950000D03*
D12*
X210960000Y-135950000D03*
%TD*%
D13*
%TO.P,S23,1*%
%TO.N,P5*%
X228740000Y-87770000D03*
%TO.P,S23,2*%
%TO.N,index_top*%
X222390000Y-90310000D03*
%TD*%
%TO.P,S28,1*%
%TO.N,P4*%
X247790000Y-87770000D03*
%TO.P,S28,2*%
%TO.N,inner_top*%
X241440000Y-90310000D03*
%TD*%
%TO.P,S9,1*%
%TO.N,P8*%
X171590000Y-87770000D03*
%TO.P,S9,2*%
%TO.N,pinky_top*%
X165240000Y-90310000D03*
%TD*%
%TO.P,S8,1*%
%TO.N,P8*%
X171590000Y-106820000D03*
%TO.P,S8,2*%
%TO.N,pinky_home*%
X165240000Y-109360000D03*
%TD*%
D10*
%TO.P,D20,1*%
%TO.N,P18*%
X203340000Y-78800000D03*
D11*
X205500000Y-78800000D03*
%TO.P,D20,2*%
%TO.N,middle_num*%
X208800000Y-78800000D03*
D12*
X210960000Y-78800000D03*
%TD*%
D13*
%TO.P,S29,1*%
%TO.N,P4*%
X247790000Y-68720000D03*
%TO.P,S29,2*%
%TO.N,inner_num*%
X241440000Y-71260000D03*
%TD*%
D10*
%TO.P,D6,1*%
%TO.N,P10*%
X165240000Y-155000000D03*
D11*
X167400000Y-155000000D03*
%TO.P,D6,2*%
%TO.N,pinky_mod*%
X170700000Y-155000000D03*
D12*
X172860000Y-155000000D03*
%TD*%
D14*
%TO.P,MCU1,1*%
%TO.N,RAW*%
X122580000Y-69355000D03*
D15*
%TO.P,MCU1,2*%
%TO.N,GND*%
X122580000Y-71895000D03*
%TO.P,MCU1,3*%
%TO.N,RST*%
X122580000Y-74435000D03*
%TO.P,MCU1,4*%
%TO.N,VCC*%
X122580000Y-76975000D03*
%TO.P,MCU1,5*%
%TO.N,P21*%
X122580000Y-79515000D03*
%TO.P,MCU1,6*%
%TO.N,P20*%
X122580000Y-82055000D03*
%TO.P,MCU1,7*%
%TO.N,P19*%
X122580000Y-84595000D03*
%TO.P,MCU1,8*%
%TO.N,P18*%
X122580000Y-87135000D03*
%TO.P,MCU1,9*%
%TO.N,P15*%
X122580000Y-89675000D03*
%TO.P,MCU1,10*%
%TO.N,P14*%
X122580000Y-92215000D03*
%TO.P,MCU1,11*%
%TO.N,P16*%
X122580000Y-94755000D03*
%TO.P,MCU1,12*%
%TO.N,P10*%
X122580000Y-97295000D03*
%TO.P,MCU1,13*%
%TO.N,P1*%
X137820000Y-69355000D03*
%TO.P,MCU1,14*%
%TO.N,P0*%
X137820000Y-71895000D03*
%TO.P,MCU1,15*%
%TO.N,GND*%
X137820000Y-74435000D03*
%TO.P,MCU1,16*%
X137820000Y-76975000D03*
%TO.P,MCU1,17*%
%TO.N,P2*%
X137820000Y-79515000D03*
%TO.P,MCU1,18*%
%TO.N,P3*%
X137820000Y-82055000D03*
%TO.P,MCU1,19*%
%TO.N,P4*%
X137820000Y-84595000D03*
%TO.P,MCU1,20*%
%TO.N,P5*%
X137820000Y-87135000D03*
%TO.P,MCU1,21*%
%TO.N,P6*%
X137820000Y-89675000D03*
%TO.P,MCU1,22*%
%TO.N,P7*%
X137820000Y-92215000D03*
%TO.P,MCU1,23*%
%TO.N,P8*%
X137820000Y-94755000D03*
%TO.P,MCU1,24*%
%TO.N,P9*%
X137820000Y-97295000D03*
%TD*%
D13*
%TO.P,S11,1*%
%TO.N,P7*%
X190640000Y-144920000D03*
%TO.P,S11,2*%
%TO.N,ring_mod*%
X184290000Y-147460000D03*
%TD*%
D10*
%TO.P,D4,1*%
%TO.N,P15*%
X146190000Y-97850000D03*
D11*
X148350000Y-97850000D03*
%TO.P,D4,2*%
%TO.N,outer_top*%
X151650000Y-97850000D03*
D12*
X153810000Y-97850000D03*
%TD*%
D10*
%TO.P,D14,1*%
%TO.N,P15*%
X184290000Y-97850000D03*
D11*
X186450000Y-97850000D03*
%TO.P,D14,2*%
%TO.N,ring_top*%
X189750000Y-97850000D03*
D12*
X191910000Y-97850000D03*
%TD*%
D10*
%TO.P,D28,1*%
%TO.N,P15*%
X241440000Y-97850000D03*
D11*
X243600000Y-97850000D03*
%TO.P,D28,2*%
%TO.N,inner_top*%
X246900000Y-97850000D03*
D12*
X249060000Y-97850000D03*
%TD*%
D10*
%TO.P,D19,1*%
%TO.N,P15*%
X203340000Y-97850000D03*
D11*
X205500000Y-97850000D03*
%TO.P,D19,2*%
%TO.N,middle_top*%
X208800000Y-97850000D03*
D12*
X210960000Y-97850000D03*
%TD*%
D10*
%TO.P,D12,1*%
%TO.N,P16*%
X184290000Y-135950000D03*
D11*
X186450000Y-135950000D03*
%TO.P,D12,2*%
%TO.N,ring_bottom*%
X189750000Y-135950000D03*
D12*
X191910000Y-135950000D03*
%TD*%
D10*
%TO.P,D9,1*%
%TO.N,P15*%
X165240000Y-97850000D03*
D11*
X167400000Y-97850000D03*
%TO.P,D9,2*%
%TO.N,pinky_top*%
X170700000Y-97850000D03*
D12*
X172860000Y-97850000D03*
%TD*%
D10*
%TO.P,D3,1*%
%TO.N,P14*%
X146190000Y-116900000D03*
D11*
X148350000Y-116900000D03*
%TO.P,D3,2*%
%TO.N,outer_home*%
X151650000Y-116900000D03*
D12*
X153810000Y-116900000D03*
%TD*%
D13*
%TO.P,S6,1*%
%TO.N,P8*%
X171590000Y-144920000D03*
%TO.P,S6,2*%
%TO.N,pinky_mod*%
X165240000Y-147460000D03*
%TD*%
%TO.P,S12,1*%
%TO.N,P7*%
X190640000Y-125870000D03*
%TO.P,S12,2*%
%TO.N,ring_bottom*%
X184290000Y-128410000D03*
%TD*%
D10*
%TO.P,D22,1*%
%TO.N,P14*%
X222390000Y-116900000D03*
D11*
X224550000Y-116900000D03*
%TO.P,D22,2*%
%TO.N,index_home*%
X227850000Y-116900000D03*
D12*
X230010000Y-116900000D03*
%TD*%
D10*
%TO.P,D8,1*%
%TO.N,P14*%
X165240000Y-116900000D03*
D11*
X167400000Y-116900000D03*
%TO.P,D8,2*%
%TO.N,pinky_home*%
X170700000Y-116900000D03*
D12*
X172860000Y-116900000D03*
%TD*%
D10*
%TO.P,D23,1*%
%TO.N,P15*%
X222390000Y-97850000D03*
D11*
X224550000Y-97850000D03*
%TO.P,D23,2*%
%TO.N,index_top*%
X227850000Y-97850000D03*
D12*
X230010000Y-97850000D03*
%TD*%
D13*
%TO.P,S15,1*%
%TO.N,P7*%
X190640000Y-68720000D03*
%TO.P,S15,2*%
%TO.N,ring_num*%
X184290000Y-71260000D03*
%TD*%
%TO.P,S14,1*%
%TO.N,P7*%
X190640000Y-87770000D03*
%TO.P,S14,2*%
%TO.N,ring_top*%
X184290000Y-90310000D03*
%TD*%
%TO.P,S21,1*%
%TO.N,P5*%
X228740000Y-125870000D03*
%TO.P,S21,2*%
%TO.N,index_bottom*%
X222390000Y-128410000D03*
%TD*%
D10*
%TO.P,D15,1*%
%TO.N,P18*%
X184290000Y-78800000D03*
D11*
X186450000Y-78800000D03*
%TO.P,D15,2*%
%TO.N,ring_num*%
X189750000Y-78800000D03*
D12*
X191910000Y-78800000D03*
%TD*%
D10*
%TO.P,D1,1*%
%TO.N,P10*%
X146190000Y-155000000D03*
D11*
X148350000Y-155000000D03*
%TO.P,D1,2*%
%TO.N,outer_mod*%
X151650000Y-155000000D03*
D12*
X153810000Y-155000000D03*
%TD*%
D13*
%TO.P,S26,1*%
%TO.N,P4*%
X247790000Y-125870000D03*
%TO.P,S26,2*%
%TO.N,inner_bottom*%
X241440000Y-128410000D03*
%TD*%
D10*
%TO.P,D24,1*%
%TO.N,P18*%
X222390000Y-78800000D03*
D11*
X224550000Y-78800000D03*
%TO.P,D24,2*%
%TO.N,index_num*%
X227850000Y-78800000D03*
D12*
X230010000Y-78800000D03*
%TD*%
D13*
%TO.P,S19,1*%
%TO.N,P6*%
X209690000Y-87770000D03*
%TO.P,S19,2*%
%TO.N,middle_top*%
X203340000Y-90310000D03*
%TD*%
D10*
%TO.P,D25,1*%
%TO.N,P10*%
X231915000Y-155000000D03*
D11*
X234075000Y-155000000D03*
%TO.P,D25,2*%
%TO.N,inner_mod*%
X237375000Y-155000000D03*
D12*
X239535000Y-155000000D03*
%TD*%
D16*
%TO.N,P9*%
X156400000Y-72580000D02*
X156400000Y-83910000D01*
X143242100Y-72130420D02*
X143242100Y-91872900D01*
X143242100Y-91872900D02*
X137820000Y-97295000D01*
X156400000Y-83910000D02*
X152540000Y-87770000D01*
X156306900Y-91536900D02*
X156306900Y-103053100D01*
X152540000Y-106820000D02*
X156306900Y-110586900D01*
X152540000Y-68720000D02*
X156400000Y-72580000D01*
X146652520Y-68720000D02*
X143242100Y-72130420D01*
X152540000Y-68720000D02*
X146652520Y-68720000D01*
X156306900Y-110586900D02*
X156306900Y-122103100D01*
X152540000Y-87770000D02*
X156306900Y-91536900D01*
X156306900Y-103053100D02*
X152540000Y-106820000D01*
X156306900Y-122103100D02*
X152540000Y-125870000D01*
X156400000Y-141060000D02*
X156400000Y-129730000D01*
X152540000Y-144920000D02*
X156400000Y-141060000D01*
X156400000Y-129730000D02*
X152540000Y-125870000D01*
%TO.N,outer_mod*%
X146190000Y-149540000D02*
X146190000Y-147460000D01*
X153810000Y-155000000D02*
X151650000Y-155000000D01*
X151650000Y-155000000D02*
X146190000Y-149540000D01*
%TO.N,outer_bottom*%
X153810000Y-135950000D02*
X151650000Y-135950000D01*
X151650000Y-135950000D02*
X146190000Y-130490000D01*
X146190000Y-130490000D02*
X146190000Y-128410000D01*
%TO.N,outer_home*%
X151650000Y-116900000D02*
X153810000Y-116900000D01*
X151650000Y-116900000D02*
X146190000Y-111440000D01*
X146190000Y-111440000D02*
X146190000Y-109360000D01*
%TO.N,outer_top*%
X151650000Y-97850000D02*
X151648455Y-97850000D01*
X153810000Y-97850000D02*
X151650000Y-97850000D01*
X146190000Y-92391545D02*
X146190000Y-90310000D01*
X151648455Y-97850000D02*
X146190000Y-92391545D01*
%TO.N,outer_num*%
X151650000Y-78800000D02*
X146190000Y-73340000D01*
X146190000Y-73340000D02*
X146190000Y-71260000D01*
X153810000Y-78800000D02*
X151650000Y-78800000D01*
%TO.N,P8*%
X171590000Y-68720000D02*
X170121000Y-67251000D01*
X175356900Y-84003100D02*
X175356900Y-72486900D01*
X175356900Y-91536900D02*
X171590000Y-87770000D01*
X175356900Y-72486900D02*
X171590000Y-68720000D01*
X175356900Y-122103100D02*
X175356900Y-110586900D01*
X171590000Y-144920000D02*
X175356900Y-141153100D01*
X170121000Y-67251000D02*
X147483710Y-67251000D01*
X175356900Y-103053100D02*
X175356900Y-91536900D01*
X142791100Y-71943610D02*
X142791100Y-89783900D01*
X175356900Y-129636900D02*
X171590000Y-125870000D01*
X175356900Y-141153100D02*
X175356900Y-129636900D01*
X171590000Y-125870000D02*
X175356900Y-122103100D01*
X142791100Y-89783900D02*
X137820000Y-94755000D01*
X171590000Y-106820000D02*
X175356900Y-103053100D01*
X171590000Y-87770000D02*
X175356900Y-84003100D01*
X175356900Y-110586900D02*
X171590000Y-106820000D01*
X147483710Y-67251000D02*
X142791100Y-71943610D01*
%TO.N,pinky_mod*%
X170700000Y-155000000D02*
X165240000Y-149540000D01*
X165240000Y-149540000D02*
X165240000Y-147460000D01*
X170700000Y-155000000D02*
X172860000Y-155000000D01*
%TO.N,pinky_bottom*%
X172860000Y-135950000D02*
X170700000Y-135950000D01*
X170700000Y-135950000D02*
X165240000Y-130490000D01*
X165240000Y-130490000D02*
X165240000Y-128410000D01*
%TO.N,pinky_home*%
X170700000Y-116900000D02*
X172860000Y-116900000D01*
X165240000Y-111440000D02*
X165240000Y-109360000D01*
X170700000Y-116900000D02*
X165240000Y-111440000D01*
%TO.N,pinky_top*%
X165240000Y-92390000D02*
X165240000Y-90310000D01*
X172860000Y-97850000D02*
X170700000Y-97850000D01*
X170700000Y-97850000D02*
X165240000Y-92390000D01*
%TO.N,pinky_num*%
X170700000Y-78800000D02*
X172860000Y-78800000D01*
X165240000Y-73340000D02*
X165240000Y-71260000D01*
X170700000Y-78800000D02*
X165240000Y-73340000D01*
%TO.N,P7*%
X194406900Y-122103100D02*
X194406900Y-110586900D01*
X190640000Y-125870000D02*
X194406900Y-122103100D01*
X194406900Y-141153100D02*
X194406900Y-129636900D01*
X142340100Y-71756800D02*
X142800000Y-71296900D01*
X137820000Y-92215000D02*
X142340100Y-87694900D01*
X190640000Y-106820000D02*
X194406900Y-103053100D01*
X190640000Y-68720000D02*
X188720000Y-66800000D01*
X194406900Y-129636900D02*
X190640000Y-125870000D01*
X190640000Y-144920000D02*
X194406900Y-141153100D01*
X142340100Y-87694900D02*
X142340100Y-71756800D01*
X194406900Y-91536900D02*
X190640000Y-87770000D01*
X188720000Y-66800000D02*
X147296900Y-66800000D01*
X194406900Y-110586900D02*
X190640000Y-106820000D01*
X194406900Y-84003100D02*
X194406900Y-72486900D01*
X147296900Y-66800000D02*
X142791100Y-71305800D01*
X194406900Y-72486900D02*
X190640000Y-68720000D01*
X194406900Y-103053100D02*
X194406900Y-91536900D01*
X190640000Y-87770000D02*
X194406900Y-84003100D01*
%TO.N,ring_mod*%
X189750000Y-155000000D02*
X184290000Y-149540000D01*
X184290000Y-149540000D02*
X184290000Y-147460000D01*
X189750000Y-155000000D02*
X191910000Y-155000000D01*
%TO.N,ring_bottom*%
X184290000Y-130490000D02*
X184290000Y-128410000D01*
X191910000Y-135950000D02*
X189750000Y-135950000D01*
X189750000Y-135950000D02*
X184290000Y-130490000D01*
%TO.N,ring_home*%
X189750000Y-116900000D02*
X184290000Y-111440000D01*
X184290000Y-111440000D02*
X184290000Y-109360000D01*
X189750000Y-116900000D02*
X191910000Y-116900000D01*
%TO.N,ring_top*%
X189750000Y-97850000D02*
X189748455Y-97850000D01*
X191910000Y-97850000D02*
X189750000Y-97850000D01*
X189748455Y-97850000D02*
X184290000Y-92391545D01*
X184290000Y-92391545D02*
X184290000Y-90310000D01*
%TO.N,ring_num*%
X189750000Y-78800000D02*
X184290000Y-73340000D01*
X184290000Y-73340000D02*
X184290000Y-71260000D01*
X189750000Y-78800000D02*
X191910000Y-78800000D01*
%TO.N,P6*%
X209690000Y-68720000D02*
X213600000Y-72630000D01*
X213600000Y-91680000D02*
X213600000Y-102910000D01*
X147110090Y-66349000D02*
X207319000Y-66349000D01*
X209690000Y-125870000D02*
X213600000Y-129780000D01*
X213600000Y-83860000D02*
X209690000Y-87770000D01*
X213456900Y-110586900D02*
X213456900Y-122103100D01*
X207319000Y-66349000D02*
X209690000Y-68720000D01*
X141889100Y-85605900D02*
X141889100Y-71569990D01*
X213600000Y-129780000D02*
X213600000Y-141010000D01*
X213600000Y-72630000D02*
X213600000Y-83860000D01*
X209690000Y-87770000D02*
X213600000Y-91680000D01*
X137820000Y-89675000D02*
X141889100Y-85605900D01*
X141889100Y-71569990D02*
X147110090Y-66349000D01*
X213600000Y-102910000D02*
X209690000Y-106820000D01*
X213600000Y-141010000D02*
X209690000Y-144920000D01*
X213456900Y-122103100D02*
X209690000Y-125870000D01*
X209690000Y-106820000D02*
X213456900Y-110586900D01*
%TO.N,middle_mod*%
X203340000Y-149540000D02*
X203340000Y-147460000D01*
X208800000Y-155000000D02*
X203340000Y-149540000D01*
X208800000Y-155000000D02*
X210960000Y-155000000D01*
%TO.N,middle_bottom*%
X210960000Y-135950000D02*
X208800000Y-135950000D01*
X208800000Y-135950000D02*
X203340000Y-130490000D01*
X203340000Y-130490000D02*
X203340000Y-128410000D01*
%TO.N,middle_home*%
X203340000Y-111440000D02*
X203340000Y-109360000D01*
X208800000Y-116900000D02*
X203340000Y-111440000D01*
X208800000Y-116900000D02*
X210960000Y-116900000D01*
%TO.N,middle_top*%
X210960000Y-97850000D02*
X208800000Y-97850000D01*
X208800000Y-97850000D02*
X203340000Y-92390000D01*
X203340000Y-92390000D02*
X203340000Y-90310000D01*
%TO.N,middle_num*%
X203340000Y-73340000D02*
X203340000Y-71260000D01*
X208800000Y-78800000D02*
X203340000Y-73340000D01*
X208800000Y-78800000D02*
X210960000Y-78800000D01*
%TO.N,P5*%
X228740000Y-125870000D02*
X232600000Y-122010000D01*
X232600000Y-110680000D02*
X228740000Y-106820000D01*
X228740000Y-106820000D02*
X232506900Y-103053100D01*
X232506900Y-84003100D02*
X232506900Y-72486900D01*
X225918000Y-65898000D02*
X228740000Y-68720000D01*
X232600000Y-122010000D02*
X232600000Y-110680000D01*
X141438100Y-83516900D02*
X141438100Y-71361900D01*
X232506900Y-72486900D02*
X228740000Y-68720000D01*
X232506900Y-91536900D02*
X228740000Y-87770000D01*
X228740000Y-87770000D02*
X232506900Y-84003100D01*
X141438100Y-71361900D02*
X146902000Y-65898000D01*
X232506900Y-103053100D02*
X232506900Y-91536900D01*
X146902000Y-65898000D02*
X225918000Y-65898000D01*
X137820000Y-87135000D02*
X141438100Y-83516900D01*
%TO.N,index_bottom*%
X227850000Y-135950000D02*
X222390000Y-130490000D01*
X230010000Y-135950000D02*
X227850000Y-135950000D01*
X222390000Y-130490000D02*
X222390000Y-128410000D01*
%TO.N,index_home*%
X227850000Y-116900000D02*
X222390000Y-111440000D01*
X222390000Y-111440000D02*
X222390000Y-109360000D01*
X227850000Y-116900000D02*
X230010000Y-116900000D01*
%TO.N,index_top*%
X222390000Y-92390000D02*
X222390000Y-90310000D01*
X227850000Y-97850000D02*
X222390000Y-92390000D01*
X230010000Y-97850000D02*
X227850000Y-97850000D01*
%TO.N,index_num*%
X222390000Y-73340000D02*
X222390000Y-71260000D01*
X227850000Y-78800000D02*
X230010000Y-78800000D01*
X227850000Y-78800000D02*
X222390000Y-73340000D01*
%TO.N,P4*%
X251600000Y-122060000D02*
X251600000Y-110630000D01*
X247790000Y-68720000D02*
X244517000Y-65447000D01*
X247790000Y-125870000D02*
X251600000Y-122060000D01*
X247790000Y-125870000D02*
X251556900Y-129636900D01*
X251600000Y-110630000D02*
X247790000Y-106820000D01*
X247790000Y-106820000D02*
X251600000Y-103010000D01*
X251600000Y-103010000D02*
X251600000Y-91580000D01*
X146715190Y-65447000D02*
X141438100Y-70724090D01*
X140987100Y-71175090D02*
X142381095Y-69781095D01*
X251556900Y-129636900D02*
X251556900Y-135261173D01*
X244517000Y-65447000D02*
X146715190Y-65447000D01*
X251600000Y-91580000D02*
X247790000Y-87770000D01*
X137820000Y-84595000D02*
X140987100Y-81427900D01*
X251556900Y-84003100D02*
X251556900Y-72486900D01*
X251556900Y-72486900D02*
X247790000Y-68720000D01*
X140987100Y-81427900D02*
X140987100Y-71175090D01*
X251556900Y-135261173D02*
X241898073Y-144920000D01*
X241898073Y-144920000D02*
X238265000Y-144920000D01*
X247790000Y-87770000D02*
X251556900Y-84003100D01*
%TO.N,inner_mod*%
X237375000Y-155000000D02*
X239535000Y-155000000D01*
X231915000Y-149540000D02*
X231915000Y-147460000D01*
X237375000Y-155000000D02*
X231915000Y-149540000D01*
%TO.N,inner_bottom*%
X249060000Y-135950000D02*
X246900000Y-135950000D01*
X246900000Y-135950000D02*
X241440000Y-130490000D01*
X241440000Y-130490000D02*
X241440000Y-128410000D01*
%TO.N,inner_home*%
X246900000Y-116900000D02*
X241440000Y-111440000D01*
X246900000Y-116900000D02*
X249060000Y-116900000D01*
X241440000Y-111440000D02*
X241440000Y-109360000D01*
%TO.N,inner_top*%
X241440000Y-92390000D02*
X241440000Y-90310000D01*
X246900000Y-97850000D02*
X241440000Y-92390000D01*
X246900000Y-97850000D02*
X249060000Y-97850000D01*
%TO.N,inner_num*%
X246900000Y-78800000D02*
X241440000Y-73340000D01*
X246900000Y-78800000D02*
X249060000Y-78800000D01*
X241440000Y-73340000D02*
X241440000Y-71260000D01*
%TO.N,P10*%
X203340000Y-155000000D02*
X205500000Y-155000000D01*
X148350000Y-155000000D02*
X146190000Y-155000000D01*
X146190000Y-155000000D02*
X142407452Y-151217452D01*
X142407452Y-117122452D02*
X122580000Y-97295000D01*
X184290000Y-155000000D02*
X186450000Y-155000000D01*
X165240000Y-155000000D02*
X167400000Y-155000000D01*
X142407452Y-151217452D02*
X142407452Y-117122452D01*
X231915000Y-155000000D02*
X234075000Y-155000000D01*
%TO.N,P16*%
X224550000Y-135950000D02*
X222390000Y-135950000D01*
X186450000Y-135950000D02*
X184290000Y-135950000D01*
X146190000Y-135950000D02*
X142858452Y-132618452D01*
X148350000Y-135950000D02*
X146190000Y-135950000D01*
X167400000Y-135950000D02*
X165240000Y-135950000D01*
X142858452Y-132618452D02*
X142858452Y-115033452D01*
X205500000Y-135950000D02*
X203340000Y-135950000D01*
X243600000Y-135950000D02*
X241440000Y-135950000D01*
X142858452Y-115033452D02*
X122580000Y-94755000D01*
%TO.N,P14*%
X184290000Y-116900000D02*
X186450000Y-116900000D01*
X146190000Y-116900000D02*
X146190000Y-115825000D01*
X165240000Y-116900000D02*
X167400000Y-116900000D01*
X146190000Y-116900000D02*
X148350000Y-116900000D01*
X241440000Y-116900000D02*
X243600000Y-116900000D01*
X222390000Y-116900000D02*
X224550000Y-116900000D01*
X146190000Y-115825000D02*
X122580000Y-92215000D01*
X203340000Y-116900000D02*
X205500000Y-116900000D01*
%TO.N,P15*%
X148350000Y-97850000D02*
X146190000Y-97850000D01*
X205500000Y-97850000D02*
X203340000Y-97850000D01*
X146190000Y-97850000D02*
X141640000Y-102400000D01*
X167400000Y-97850000D02*
X165240000Y-97850000D01*
X241440000Y-97850000D02*
X243600000Y-97850000D01*
X135305000Y-102400000D02*
X122580000Y-89675000D01*
X224550000Y-97850000D02*
X222390000Y-97850000D01*
X141640000Y-102400000D02*
X135305000Y-102400000D01*
X186450000Y-97850000D02*
X184290000Y-97850000D01*
%TO.N,P18*%
X148350000Y-78800000D02*
X146190000Y-78800000D01*
X165240000Y-78800000D02*
X167400000Y-78800000D01*
X137394000Y-101949000D02*
X122580000Y-87135000D01*
X143693100Y-81296900D02*
X143693100Y-99709090D01*
X146190000Y-78800000D02*
X143693100Y-81296900D01*
X143693100Y-99709090D02*
X141453190Y-101949000D01*
X241440000Y-78800000D02*
X243600000Y-78800000D01*
X141453190Y-101949000D02*
X137394000Y-101949000D01*
X184290000Y-78800000D02*
X186450000Y-78800000D01*
X203340000Y-78800000D02*
X205500000Y-78800000D01*
X222390000Y-78800000D02*
X224550000Y-78800000D01*
%TO.N,GND*%
X122580000Y-71895000D02*
X125120000Y-74435000D01*
X137820000Y-74435000D02*
X137820000Y-76975000D01*
X125120000Y-74435000D02*
X137820000Y-74435000D01*
%TD*%
M02*
